<svg width="20" height="12" viewBox="0 0 20 12" fill="none" xmlns="http://www.w3.org/2000/svg">
<path d="M1 1H4M1 5H3M7.80005 1.5L10.782 4.78C11.047 5.07155 11.3669 5.30804 11.7233 5.47598C12.0797 5.64392 12.4657 5.74001 12.8592 5.75877C13.2528 5.77753 13.6461 5.71858 14.0169 5.5853C14.3876 5.45203 14.7285 5.24702 15.02 4.982L18.3 2M7.01996 2.801L6.41996 8.801C6.39216 9.07903 6.42292 9.35981 6.51027 9.62522C6.59762 9.89064 6.73962 10.1348 6.92711 10.342C7.11459 10.5492 7.34342 10.7148 7.59882 10.8281C7.85422 10.9414 8.13054 11 8.40996 11H16.39C16.8859 11 17.3642 10.8157 17.7319 10.4829C18.0997 10.1501 18.3306 9.69251 18.38 9.199L18.98 3.199C19.0078 2.92097 18.977 2.64019 18.8896 2.37478C18.8023 2.10936 18.6603 1.86519 18.4728 1.65801C18.2853 1.45083 18.0565 1.28524 17.8011 1.17191C17.5457 1.05857 17.2694 1.00001 16.99 1H9.00996C8.51399 1.00002 8.03572 1.18432 7.66799 1.51712C7.30026 1.84993 7.06931 2.30749 7.01996 2.801Z" stroke="white" stroke-width="1.5" stroke-linecap="round" stroke-linejoin="round"/>
</svg>
