<svg width="160" height="51" viewBox="0 0 160 51" fill="none" xmlns="http://www.w3.org/2000/svg">
<path fill-rule="evenodd" clip-rule="evenodd" d="M37.0854 40.6862H42.1425V16.9048H37.0854V40.6862ZM37.0854 13.003H42.1425V7.81494H37.0854V13.003Z" fill="#1F294D"/>
<path fill-rule="evenodd" clip-rule="evenodd" d="M44.2804 16.9384H48.5684V20.3441H48.6518C50.1664 17.8124 52.8136 16.3853 55.6307 16.3853C58.1945 16.3853 60.9266 17.6289 61.9774 19.7919C63.029 21.9557 63.029 23.5672 63.029 26.8347V40.782H58.3629V27.3869C58.3629 24.4413 58.3629 20.4824 54.2432 20.4824C52.3093 20.4824 50.5024 21.68 49.8289 23.1524C49.1562 24.6256 48.9465 26.2363 48.9465 28.768V40.782H44.2804V16.9384Z" fill="#1F294D"/>
<path fill-rule="evenodd" clip-rule="evenodd" d="M81.3548 23.7507C80.8505 20.6668 78.1604 20.298 76.7729 20.298C75.3854 20.298 72.5278 20.6668 72.5278 22.8758C72.5278 24.3952 73.7882 25.0396 77.6561 26.0058C82.7844 27.2947 86.6094 28.5836 86.6094 33.4174C86.6094 37.1458 84.0028 41.3342 77.2351 41.3342C70.678 41.3342 68.0713 37.2841 67.4415 33.7853L72.0647 33.0034C72.6532 36.9153 75.5959 37.4215 77.1931 37.4215C77.8658 37.4215 81.8171 37.3293 81.8171 34.1531C81.8171 32.9564 81.1864 32.1285 78.8331 31.5293C72.1068 29.8264 68.1142 28.5836 68.1142 23.5202C68.1142 18.8717 71.9384 16.3853 76.3107 16.3853C79.2112 16.3853 84.7597 16.9384 85.8112 22.9219L81.3548 23.7507Z" fill="#1F294D"/>
<mask id="mask0_1600_732" style="mask-type:luminance" maskUnits="userSpaceOnUse" x="0" y="0" width="160" height="51">
<path fill-rule="evenodd" clip-rule="evenodd" d="M0 50.8004H160V0H0V50.8004Z" fill="white"/>
</mask>
<g mask="url(#mask0_1600_732)">
<path fill-rule="evenodd" clip-rule="evenodd" d="M91.1062 40.7817H95.7723V16.9382H91.1062V40.7817ZM91.1062 13.0264H95.7723V7.82471H91.1062V13.0264Z" fill="#1F294D"/>
<path fill-rule="evenodd" clip-rule="evenodd" d="M105.062 28.7223C105.062 32.8647 106.659 36.5931 110.4 36.5931C112.333 36.5931 113.637 35.4885 114.225 34.798C115.865 33.0491 115.949 29.3207 115.949 28.3075C115.949 25.3157 114.897 20.3906 110.4 20.3906C106.155 20.3906 105.062 25.1313 105.062 28.7223ZM106.028 43.2681C106.155 44.2804 106.491 46.7571 110.105 46.7571C111.241 46.7571 114.099 46.1215 115.108 44.0508C115.781 42.7158 115.781 41.9331 115.781 37.3298H115.697C115.025 38.2969 113.174 40.7816 109.391 40.7816C103.254 40.7816 100.269 34.6137 100.269 28.7224C100.269 21.3108 103.885 16.3857 109.56 16.3857C113.469 16.3857 115.318 18.9174 116.033 20.0228H116.117V16.9389H120.447V37.9281C120.447 41.2425 120.194 44.9248 118.639 46.9964C116.748 49.5281 113.72 50.7612 110.694 50.7612C107.079 50.7612 100.774 49.5733 101.026 42.5775L106.028 43.2681Z" fill="#1F294D"/>
<path fill-rule="evenodd" clip-rule="evenodd" d="M126.12 7.82446H130.786V19.7923C133.266 16.6162 135.998 16.3857 137.386 16.3857C139.571 16.3857 142.429 17.2607 143.691 19.5628C144.742 21.4952 144.868 23.5668 144.868 26.1907V40.7825H140.202V26.8351C140.202 24.3035 140.202 20.4829 136.082 20.4829C134.233 20.4829 132.425 21.5413 131.668 23.0146C130.912 24.5791 130.786 26.0985 130.786 28.2623V40.7825H126.12V7.82446Z" fill="#1F294D"/>
<path fill-rule="evenodd" clip-rule="evenodd" d="M155.712 16.9385H159.537V20.9434H155.712V32.8191C155.712 35.4882 155.712 36.7771 157.393 36.7771C158.318 36.7771 159.116 36.5014 159.495 36.3631L160 40.5516C159.285 40.8282 158.276 41.196 156.511 41.196C151.046 41.196 151.046 37.5137 151.046 33.0948V20.9434H148.355V16.9385H151.046V11.9522L155.712 7.7168V16.9385Z" fill="#1F294D"/>
<path fill-rule="evenodd" clip-rule="evenodd" d="M38.3124 45.6203L37.8599 46.4092C37.6154 46.1965 37.2203 46.0901 36.6763 46.0901C36.1607 46.0901 35.7373 46.2772 35.4078 46.653C35.0783 47.028 34.914 47.504 34.914 48.0784C34.914 48.6528 35.0662 49.1093 35.3722 49.4462C35.6782 49.7839 36.0862 49.9532 36.5962 49.9532C37.1799 49.9532 37.6356 49.7724 37.9659 49.4099L38.4775 50.1802C38.0291 50.5933 37.3725 50.8007 36.508 50.8007C35.6418 50.8007 34.9699 50.5534 34.4906 50.0596C34.0122 49.565 33.7726 48.8913 33.7726 48.0376C33.7726 47.2434 34.0381 46.5785 34.5692 46.044C35.1002 45.5095 35.7802 45.2427 36.6092 45.2427C37.3183 45.2427 37.8874 45.3686 38.3124 45.6203Z" fill="#9C262A"/>
<path fill-rule="evenodd" clip-rule="evenodd" d="M41.5095 47.9754C41.5095 48.6039 41.6317 49.0906 41.877 49.4354C42.1223 49.7811 42.4785 49.9531 42.9464 49.9531C43.4961 49.9531 43.9154 49.7847 44.2044 49.4469C44.4934 49.1092 44.6375 48.619 44.6375 47.9754C44.6375 46.7158 44.1016 46.0864 43.0314 46.0864C42.54 46.0864 42.1652 46.2566 41.9021 46.5979C41.6406 46.9392 41.5095 47.3984 41.5095 47.9754ZM40.368 47.9755C40.368 47.2105 40.6101 46.5625 41.0926 46.0333C41.5759 45.5032 42.2227 45.239 43.0314 45.239C43.921 45.239 44.6019 45.4784 45.073 45.9579C45.5433 46.4375 45.7789 47.1094 45.7789 47.9755C45.7789 48.8415 45.5336 49.5285 45.0406 50.0373C44.5492 50.5462 43.8514 50.8006 42.9464 50.8006C42.115 50.8006 41.4779 50.5488 41.0335 50.0444C40.5899 49.5409 40.368 48.8513 40.368 47.9755Z" fill="#9C262A"/>
<path fill-rule="evenodd" clip-rule="evenodd" d="M52.1123 50.7818L49.1066 47.3814V50.7118H48.0493V45.3337H48.5787L51.5036 48.5772V45.3337H52.5608V50.7818H52.1123Z" fill="#9C262A"/>
<path fill-rule="evenodd" clip-rule="evenodd" d="M54.8311 50.4113L55.2374 49.5568C55.6713 49.8209 56.098 49.953 56.5181 49.953C57.1633 49.953 57.4863 49.7571 57.4863 49.3662C57.4863 49.1827 57.411 49.008 57.258 48.8414C57.1066 48.6747 56.7925 48.4886 56.3173 48.282C55.843 48.0755 55.5224 47.9053 55.3572 47.7715C55.1929 47.6385 55.0658 47.4798 54.9776 47.2963C54.8885 47.1137 54.8448 46.9107 54.8448 46.6873C54.8448 46.2725 55.0189 45.9268 55.3702 45.6529C55.7215 45.3789 56.1716 45.2424 56.7213 45.2424C57.4377 45.2424 57.9623 45.3586 58.2974 45.5908L57.9639 46.4125C57.5786 46.1732 57.1714 46.0526 56.7423 46.0526C56.489 46.0526 56.2922 46.1111 56.153 46.2273C56.013 46.3434 55.9433 46.495 55.9433 46.6802C55.9433 46.9887 56.336 47.3087 57.1228 47.6411C57.5373 47.8176 57.836 47.9798 58.019 48.1278C58.2019 48.2758 58.342 48.4478 58.4375 48.6446C58.533 48.8414 58.5816 49.0612 58.5816 49.3032C58.5816 49.7385 58.3832 50.0975 57.9874 50.3785C57.5907 50.6595 57.0605 50.8004 56.3959 50.8004C55.8179 50.8004 55.2965 50.6701 54.8311 50.4113Z" fill="#9C262A"/>
<path fill-rule="evenodd" clip-rule="evenodd" d="M60.8518 45.3342H61.9511V48.9766C61.9511 49.2656 62.0523 49.5005 62.2555 49.6814C62.4587 49.8622 62.7372 49.9526 63.0934 49.9526C63.49 49.9526 63.7993 49.864 64.0211 49.6867C64.2413 49.5094 64.3522 49.2674 64.3522 48.9589V45.3342H65.4515V49.0316C65.4515 49.5847 65.2386 50.0182 64.8112 50.3311C64.3838 50.644 63.8139 50.8009 63.1015 50.8009C62.3826 50.8009 61.8281 50.6476 61.4379 50.3418C61.0469 50.0359 60.8518 49.5989 60.8518 49.028V45.3342Z" fill="#9C262A"/>
<path fill-rule="evenodd" clip-rule="evenodd" d="M68.0183 50.7087V45.3342H69.1176V49.8613H71.9162V50.7087H68.0183Z" fill="#9C262A"/>
<path fill-rule="evenodd" clip-rule="evenodd" d="M75.9798 46.1817V50.7087H74.8813V46.1817H72.9109V45.3342H78.0384V46.1817H75.9798Z" fill="#9C262A"/>
<path fill-rule="evenodd" clip-rule="evenodd" d="M80.0773 50.709H81.1758V45.3345H80.0773V50.709Z" fill="#9C262A"/>
<path fill-rule="evenodd" clip-rule="evenodd" d="M87.827 50.7818L84.8213 47.3814V50.7118H83.764V45.3337H84.2927L87.2183 48.5772V45.3337H88.2755V50.7818H87.827Z" fill="#9C262A"/>
<path fill-rule="evenodd" clip-rule="evenodd" d="M95.4155 45.7705L94.9557 46.5373C94.8254 46.4371 94.6254 46.3378 94.3542 46.2386C94.0838 46.1393 93.8515 46.0896 93.6572 46.0896C93.0485 46.0896 92.5676 46.2687 92.2155 46.6268C91.8633 46.9858 91.6876 47.4654 91.6876 48.0673C91.6876 48.6399 91.8601 49.0964 92.2049 49.4395C92.5506 49.7817 93.0201 49.9528 93.6151 49.9528C94.0069 49.9528 94.3291 49.8597 94.5833 49.6744V48.6178H93.7252V47.8031H95.6818V50.2098C95.4204 50.396 95.0828 50.5405 94.6699 50.6451C94.2563 50.7488 93.8466 50.8002 93.4378 50.8002C92.5498 50.8002 91.8463 50.5476 91.3258 50.0432C90.8061 49.5379 90.5454 48.8704 90.5454 48.0416C90.5454 47.2119 90.8296 46.5391 91.3954 46.0205C91.9621 45.5019 92.7246 45.2422 93.6823 45.2422C94.3615 45.2422 94.9395 45.4186 95.4155 45.7705Z" fill="#9C262A"/>
</g>
<mask id="mask1_1600_732" style="mask-type:luminance" maskUnits="userSpaceOnUse" x="7" y="7" width="15" height="15">
<path fill-rule="evenodd" clip-rule="evenodd" d="M10.8453 8.99447C9.76351 9.72715 8.90291 10.7668 8.39067 11.9832C8.04947 12.7953 7.85962 13.6833 7.85962 14.6257C7.86051 16.0393 8.2841 17.3351 9.01485 18.4212C9.74381 19.5064 10.7808 20.3694 11.9934 20.8834C12.802 21.2261 13.6886 21.4162 14.6271 21.4171C16.0358 21.4153 17.328 20.9896 18.4107 20.2569C19.4916 19.5251 20.3522 18.4845 20.8645 17.2691C21.2065 16.457 21.3955 15.5681 21.3955 14.6257C21.3955 13.213 20.971 11.9163 20.2412 10.8302C19.5104 9.74589 18.4734 8.88292 17.2618 8.36888C16.4531 8.02529 15.5665 7.83521 14.6271 7.83521C13.2193 7.8361 11.9262 8.26179 10.8453 8.99447Z" fill="white"/>
</mask>
<g mask="url(#mask1_1600_732)">
<path fill-rule="evenodd" clip-rule="evenodd" d="M10.8453 8.99447C9.76351 9.72715 8.90291 10.7668 8.39067 11.9832C8.04947 12.7953 7.85962 13.6833 7.85962 14.6257C7.86051 16.0393 8.2841 17.3351 9.01485 18.4212C9.74381 19.5064 10.7808 20.3694 11.9934 20.8834C12.802 21.2261 13.6886 21.4162 14.6271 21.4171C16.0358 21.4153 17.328 20.9896 18.4107 20.2569C19.4916 19.5251 20.3522 18.4845 20.8645 17.2691C21.2065 16.457 21.3955 15.5681 21.3955 14.6257C21.3955 13.213 20.971 11.9163 20.2412 10.8302C19.5104 9.74589 18.4734 8.88292 17.2618 8.36888C16.4531 8.02529 15.5665 7.83521 14.6271 7.83521C13.2193 7.8361 11.9262 8.26179 10.8453 8.99447Z" fill="url(#paint0_linear_1600_732)"/>
</g>
<mask id="mask2_1600_732" style="mask-type:luminance" maskUnits="userSpaceOnUse" x="14" y="0" width="16" height="15">
<path fill-rule="evenodd" clip-rule="evenodd" d="M14.9684 0.00402832V4.6982C16.8148 4.83385 18.5363 5.46033 19.9847 6.44647C21.633 7.56825 22.9413 9.15231 23.7258 11.0228C24.1559 12.0438 24.4237 13.1504 24.5075 14.3043H29.2767V0.00402832H14.9684Z" fill="white"/>
</mask>
<g mask="url(#mask2_1600_732)">
<path fill-rule="evenodd" clip-rule="evenodd" d="M14.9684 0.00402832V4.6982C16.8148 4.83385 18.5363 5.46033 19.9847 6.44647C21.633 7.56825 22.9413 9.15231 23.7258 11.0228C24.1559 12.0438 24.4237 13.1504 24.5075 14.3043H29.2767V0.00402832H14.9684Z" fill="url(#paint1_linear_1600_732)"/>
</g>
<mask id="mask3_1600_732" style="mask-type:luminance" maskUnits="userSpaceOnUse" x="14" y="15" width="16" height="16">
<path fill-rule="evenodd" clip-rule="evenodd" d="M24.5111 15.7905C24.3764 17.6495 23.7543 19.3808 22.7736 20.8399C21.6589 22.4998 20.0856 23.8161 18.2293 24.6068C17.2155 25.0379 16.1152 25.3092 14.9684 25.3939V30.064C16.1098 29.9989 17.2476 29.8052 18.356 29.475C20.2819 28.8976 22.1221 27.9275 23.757 26.538C23.9596 26.3667 24.1541 26.1873 24.3487 26.007C26.6137 23.8688 28.1808 21.9902 28.7662 18.9301C28.8305 18.5936 29.1 17.1827 29.1482 16.8373C29.1892 16.5393 29.224 16.1886 29.2553 15.7905H24.5111Z" fill="white"/>
</mask>
<g mask="url(#mask3_1600_732)">
<path fill-rule="evenodd" clip-rule="evenodd" d="M24.5111 15.7905C24.3764 17.6495 23.7543 19.3808 22.7736 20.8399C21.6589 22.4998 20.0856 23.8161 18.2293 24.6068C17.2155 25.0379 16.1152 25.3092 14.9684 25.3939V30.064C16.1098 29.9989 17.2476 29.8052 18.356 29.475C20.2819 28.8976 22.1221 27.9275 23.757 26.538C23.9596 26.3667 24.1541 26.1873 24.3487 26.007C26.6137 23.8688 28.1808 21.9902 28.7662 18.9301C28.8305 18.5936 29.1 17.1827 29.1482 16.8373C29.1892 16.5393 29.224 16.1886 29.2553 15.7905H24.5111Z" fill="url(#paint2_linear_1600_732)"/>
</g>
<mask id="mask4_1600_732" style="mask-type:luminance" maskUnits="userSpaceOnUse" x="0" y="0" width="15" height="15">
<path fill-rule="evenodd" clip-rule="evenodd" d="M5.91944 3.04891C5.70972 3.21044 5.50535 3.37822 5.30366 3.54956C3.66695 4.93907 2.40416 6.59631 1.5162 8.41419C0.612168 10.2642 0.104376 12.2713 0.000854492 14.3024H4.745C4.87976 12.4453 5.50267 10.7131 6.48345 9.25486C7.5972 7.59494 9.17055 6.27861 11.0268 5.48792C12.0406 5.05598 13.141 4.78558 14.2868 4.7008V0.017334C11.2454 0.146736 8.35398 1.19266 5.91944 3.04891Z" fill="white"/>
</mask>
<g mask="url(#mask4_1600_732)">
<path fill-rule="evenodd" clip-rule="evenodd" d="M5.91944 3.04891C5.70972 3.21044 5.50535 3.37822 5.30366 3.54956C3.66695 4.93907 2.40416 6.59631 1.5162 8.41419C0.612168 10.2642 0.104376 12.2713 0.000854492 14.3024H4.745C4.87976 12.4453 5.50267 10.7131 6.48345 9.25486C7.5972 7.59494 9.17055 6.27861 11.0268 5.48792C12.0406 5.05598 13.141 4.78558 14.2868 4.7008V0.017334C11.2454 0.146736 8.35398 1.19266 5.91944 3.04891Z" fill="url(#paint3_linear_1600_732)"/>
</g>
<mask id="mask5_1600_732" style="mask-type:luminance" maskUnits="userSpaceOnUse" x="0" y="15" width="15" height="16">
<path fill-rule="evenodd" clip-rule="evenodd" d="M0 15.7881C0.159745 18.9633 1.31276 22.1145 3.50635 24.7338C6.31304 28.084 10.2585 29.8929 14.2869 30.0741V25.3969C12.4404 25.2612 10.7198 24.6338 9.27144 23.6477C7.62312 22.5259 6.31571 20.9419 5.53038 19.0713C5.10112 18.0504 4.83161 16.9429 4.74772 15.7881H0Z" fill="white"/>
</mask>
<g mask="url(#mask5_1600_732)">
<path fill-rule="evenodd" clip-rule="evenodd" d="M0 15.7881C0.159745 18.9633 1.31276 22.1145 3.50635 24.7338C6.31304 28.084 10.2585 29.8929 14.2869 30.0741V25.3969C12.4404 25.2612 10.7198 24.6338 9.27144 23.6477C7.62312 22.5259 6.31571 20.9419 5.53038 19.0713C5.10112 18.0504 4.83161 16.9429 4.74772 15.7881H0Z" fill="url(#paint4_linear_1600_732)"/>
</g>
<defs>
<linearGradient id="paint0_linear_1600_732" x1="7.8594" y1="21.4172" x2="21.3958" y2="21.4172" gradientUnits="userSpaceOnUse">
<stop stop-color="#9D262A"/>
<stop offset="1" stop-color="#CA232A"/>
</linearGradient>
<linearGradient id="paint1_linear_1600_732" x1="27.767" y1="15.1755" x2="31.6576" y2="0.639253" gradientUnits="userSpaceOnUse">
<stop stop-color="#9D262A"/>
<stop offset="1" stop-color="#CA232A"/>
</linearGradient>
<linearGradient id="paint2_linear_1600_732" x1="27.8976" y1="33.5241" x2="32.4152" y2="16.6326" gradientUnits="userSpaceOnUse">
<stop stop-color="#9D262A"/>
<stop offset="1" stop-color="#CA232A"/>
</linearGradient>
<linearGradient id="paint3_linear_1600_732" x1="13.7521" y1="17.9868" x2="18.2799" y2="1.08667" gradientUnits="userSpaceOnUse">
<stop stop-color="#9D262A"/>
<stop offset="1" stop-color="#CA232A"/>
</linearGradient>
<linearGradient id="paint4_linear_1600_732" x1="11.3871" y1="29.6597" x2="14.4099" y2="18.3773" gradientUnits="userSpaceOnUse">
<stop stop-color="#9D262A"/>
<stop offset="1" stop-color="#CA232A"/>
</linearGradient>
</defs>
</svg>
