<svg width="200" height="59" viewBox="0 0 200 59" fill="none" xmlns="http://www.w3.org/2000/svg">
<path fill-rule="evenodd" clip-rule="evenodd" d="M42.3833 46.4986H48.1628V19.3199H42.3833V46.4986ZM42.3833 14.8608H48.1628V8.93152H42.3833V14.8608Z" fill="#1F294D"/>
<path fill-rule="evenodd" clip-rule="evenodd" d="M55.3506 19.3584H60.7106V23.2506H60.8149C62.7081 20.3573 66.0171 18.7262 69.5385 18.7262C72.7432 18.7262 76.1584 20.1475 77.4718 22.6195C78.7863 25.0924 78.7863 26.9342 78.7863 30.6684V46.6082H72.9537V31.2995C72.9537 27.9331 72.9537 23.4086 67.8041 23.4086C65.3867 23.4086 63.1281 24.7773 62.2862 26.46C61.4453 28.1438 61.1832 29.9845 61.1832 32.8779V46.6082H55.3506V19.3584Z" fill="#1F294D"/>
<path fill-rule="evenodd" clip-rule="evenodd" d="M101.693 27.1439C101.063 23.6194 97.7004 23.1979 95.966 23.1979C94.2316 23.1979 90.6596 23.6194 90.6596 26.144C90.6596 27.8804 92.2351 28.6169 97.07 29.7211C103.48 31.1942 108.262 32.6672 108.262 38.1915C108.262 42.4525 105.003 47.2393 96.5438 47.2393C88.3474 47.2393 85.089 42.6106 84.3018 38.6119L90.0807 37.7184C90.8164 42.1891 94.4947 42.7676 96.4912 42.7676C97.3321 42.7676 102.271 42.6622 102.271 39.0324C102.271 37.6647 101.483 36.7185 98.5413 36.0336C90.1334 34.0875 85.1427 32.6672 85.1427 26.8805C85.1427 21.5679 89.9229 18.7262 95.3882 18.7262C99.0138 18.7262 105.949 19.3584 107.264 26.1966L101.693 27.1439Z" fill="#1F294D"/>
<mask id="mask0_1547_394" style="mask-type:luminance" maskUnits="userSpaceOnUse" x="0" y="0" width="200" height="59">
<path fill-rule="evenodd" clip-rule="evenodd" d="M0 58.0575H200V0H0V58.0575Z" fill="white"/>
</mask>
<g mask="url(#mask0_1547_394)">
<path fill-rule="evenodd" clip-rule="evenodd" d="M113.883 46.6077H119.715V19.3579H113.883V46.6077ZM113.883 14.8873H119.715V8.9425H113.883V14.8873Z" fill="#1F294D"/>
<path fill-rule="evenodd" clip-rule="evenodd" d="M131.327 32.8256C131.327 37.5597 133.324 41.8207 138 41.8207C140.416 41.8207 142.046 40.5584 142.781 39.7692C144.831 37.7704 144.936 33.5094 144.936 32.3515C144.936 28.9323 143.622 23.3037 138 23.3037C132.693 23.3037 131.327 28.7216 131.327 32.8256ZM132.536 49.4492C132.693 50.6061 133.113 53.4367 137.632 53.4367C139.051 53.4367 142.624 52.7103 143.885 50.3438C144.726 48.8181 144.726 47.9235 144.726 42.6626H144.621C143.781 43.7679 141.468 46.6075 136.739 46.6075C129.068 46.6075 125.337 39.5585 125.337 32.8256C125.337 24.3552 129.856 18.7266 136.95 18.7266C141.836 18.7266 144.148 21.6199 145.042 22.8832H145.146V19.3587H150.559V43.3464C150.559 47.1343 150.243 51.3426 148.299 53.7102C145.935 56.6036 142.151 58.0128 138.368 58.0128C133.849 58.0128 125.967 56.6552 126.283 48.66L132.536 49.4492Z" fill="#1F294D"/>
<path fill-rule="evenodd" clip-rule="evenodd" d="M157.649 8.94202H163.482V22.6196C166.583 18.9897 169.998 18.7263 171.732 18.7263C174.464 18.7263 178.036 19.7262 179.614 22.3572C180.927 24.5657 181.085 26.9333 181.085 29.932V46.6083H175.253V30.6685C175.253 27.7752 175.253 23.4088 170.103 23.4088C167.791 23.4088 165.531 24.6184 164.585 26.3021C163.64 28.0902 163.482 29.8266 163.482 32.2996V46.6083H157.649V8.94202Z" fill="#1F294D"/>
<path fill-rule="evenodd" clip-rule="evenodd" d="M194.641 19.3583H199.422V23.9354H194.641V37.5076C194.641 40.558 194.641 42.031 196.741 42.031C197.898 42.031 198.896 41.7159 199.369 41.5579L200 46.3447C199.106 46.6608 197.845 47.0812 195.638 47.0812C188.807 47.0812 188.807 42.8729 188.807 37.8227V23.9354H185.444V19.3583H188.807V13.6597L194.641 8.81921V19.3583Z" fill="#1F294D"/>
<path fill-rule="evenodd" clip-rule="evenodd" d="M47.8906 52.1374L47.3249 53.039C47.0193 52.7959 46.5255 52.6743 45.8455 52.6743C45.2009 52.6743 44.6717 52.8881 44.2599 53.3176C43.848 53.7462 43.6426 54.2902 43.6426 54.9467C43.6426 55.6031 43.8328 56.1249 44.2153 56.5098C44.5978 56.8958 45.1078 57.0893 45.7453 57.0893C46.4749 57.0893 47.0446 56.8826 47.4575 56.4683L48.097 57.3487C47.5364 57.8208 46.7158 58.0578 45.635 58.0578C44.5523 58.0578 43.7124 57.7752 43.1134 57.2109C42.5153 56.6456 42.2158 55.8756 42.2158 54.9C42.2158 53.9923 42.5477 53.2325 43.2115 52.6216C43.8753 52.0107 44.7253 51.7058 45.7615 51.7058C46.648 51.7058 47.3593 51.8497 47.8906 52.1374Z" fill="#9C262A"/>
<path fill-rule="evenodd" clip-rule="evenodd" d="M51.8868 54.8289C51.8868 55.5472 52.0396 56.1034 52.3462 56.4974C52.6528 56.8925 53.098 57.0891 53.6829 57.0891C54.37 57.0891 54.8941 56.8966 55.2554 56.5106C55.6166 56.1246 55.7968 55.5644 55.7968 54.8289C55.7968 53.3893 55.1269 52.67 53.7891 52.67C53.1749 52.67 52.7064 52.8645 52.3775 53.2546C52.0507 53.6446 51.8868 54.1694 51.8868 54.8289ZM50.46 54.8289C50.46 53.9546 50.7625 53.2141 51.3656 52.6093C51.9697 52.0034 52.7782 51.7015 53.7891 51.7015C54.9012 51.7015 55.7522 51.9751 56.3412 52.5231C56.9291 53.0712 57.2235 53.8391 57.2235 54.8289C57.2235 55.8187 56.9169 56.6038 56.3007 57.1853C55.6865 57.7668 54.8142 58.0576 53.6829 58.0576C52.6437 58.0576 51.8473 57.7699 51.2917 57.1934C50.7372 56.618 50.46 55.8298 50.46 54.8289Z" fill="#9C262A"/>
<path fill-rule="evenodd" clip-rule="evenodd" d="M65.1403 58.0364L61.3831 54.1503V57.9564H60.0615V51.8101H60.7233L64.3793 55.5169V51.8101H65.7009V58.0364H65.1403Z" fill="#9C262A"/>
<path fill-rule="evenodd" clip-rule="evenodd" d="M68.5386 57.6128L69.0466 56.6362C69.5889 56.9381 70.1222 57.0891 70.6474 57.0891C71.4539 57.0891 71.8576 56.8652 71.8576 56.4184C71.8576 56.2087 71.7635 56.0091 71.5723 55.8187C71.383 55.6282 70.9904 55.4155 70.3964 55.1794C69.8035 54.9434 69.4027 54.7489 69.1963 54.5959C68.9909 54.4439 68.832 54.2626 68.7217 54.0529C68.6104 53.8442 68.5558 53.6122 68.5558 53.3569C68.5558 52.8828 68.7733 52.4877 69.2125 52.1746C69.6517 51.8616 70.2143 51.7056 70.9014 51.7056C71.7969 51.7056 72.4526 51.8383 72.8716 52.1037L72.4546 53.0428C71.973 52.7693 71.464 52.6315 70.9277 52.6315C70.611 52.6315 70.3651 52.6984 70.191 52.8311C70.016 52.9638 69.9289 53.137 69.9289 53.3488C69.9289 53.7013 70.4197 54.0671 71.4033 54.447C71.9214 54.6486 72.2948 54.834 72.5235 55.0031C72.7521 55.1723 72.9272 55.3689 73.0466 55.5938C73.166 55.8187 73.2267 56.0699 73.2267 56.3465C73.2267 56.8439 72.9788 57.2542 72.484 57.5753C71.9882 57.8965 71.3254 58.0576 70.4946 58.0576C69.7721 58.0576 69.1204 57.9087 68.5386 57.6128Z" fill="#9C262A"/>
<path fill-rule="evenodd" clip-rule="evenodd" d="M76.0649 51.8105H77.4391V55.9733C77.4391 56.3036 77.5656 56.572 77.8196 56.7787C78.0736 56.9854 78.4217 57.0887 78.8669 57.0887C79.3627 57.0887 79.7493 56.9874 80.0265 56.7848C80.3018 56.5822 80.4404 56.3056 80.4404 55.953V51.8105H81.8146V56.0361C81.8146 56.6683 81.5485 57.1637 81.0142 57.5213C80.4799 57.8789 79.7675 58.0582 78.877 58.0582C77.9785 58.0582 77.2853 57.8829 76.7976 57.5334C76.3088 57.1839 76.0649 56.6845 76.0649 56.032V51.8105Z" fill="#9C262A"/>
<path fill-rule="evenodd" clip-rule="evenodd" d="M85.0229 57.9528V51.8105H86.3971V56.9843H89.8953V57.9528H85.0229Z" fill="#9C262A"/>
<path fill-rule="evenodd" clip-rule="evenodd" d="M94.9748 52.7791V57.9528H93.6016V52.7791H91.1387V51.8105H97.5481V52.7791H94.9748Z" fill="#9C262A"/>
<path fill-rule="evenodd" clip-rule="evenodd" d="M100.097 57.9532H101.47V51.8109H100.097V57.9532Z" fill="#9C262A"/>
<path fill-rule="evenodd" clip-rule="evenodd" d="M109.784 58.0364L106.027 54.1503V57.9564H104.705V51.8101H105.366L109.023 55.5169V51.8101H110.344V58.0364H109.784Z" fill="#9C262A"/>
<path fill-rule="evenodd" clip-rule="evenodd" d="M119.269 52.3091L118.694 53.1854C118.532 53.071 118.282 52.9575 117.943 52.844C117.605 52.7306 117.314 52.6738 117.071 52.6738C116.31 52.6738 115.709 52.8785 115.269 53.2878C114.829 53.698 114.609 54.2461 114.609 54.934C114.609 55.5885 114.825 56.1102 115.256 56.5023C115.688 56.8933 116.275 57.0888 117.019 57.0888C117.509 57.0888 117.911 56.9825 118.229 56.7707V55.5631H117.156V54.6321H119.602V57.3826C119.275 57.5954 118.853 57.7605 118.337 57.88C117.82 57.9986 117.308 58.0573 116.797 58.0573C115.687 58.0573 114.808 57.7686 114.157 57.1922C113.507 56.6147 113.182 55.8519 113.182 54.9046C113.182 53.9564 113.537 53.1875 114.244 52.5948C114.952 52.0022 115.906 51.7053 117.103 51.7053C117.952 51.7053 118.674 51.9069 119.269 52.3091Z" fill="#9C262A"/>
</g>
<mask id="mask1_1547_394" style="mask-type:luminance" maskUnits="userSpaceOnUse" x="8" y="8" width="17" height="17">
<path fill-rule="evenodd" clip-rule="evenodd" d="M12.3946 10.2793C11.1583 11.1167 10.1748 12.3049 9.58933 13.695C9.1994 14.6232 8.98242 15.638 8.98242 16.715C8.98345 18.3306 9.46754 19.8115 10.3027 21.0527C11.1358 22.293 12.3209 23.2792 13.7067 23.8667C14.6309 24.2583 15.6441 24.4756 16.7167 24.4766C18.3266 24.4746 19.8035 23.9881 21.0408 23.1507C22.2761 22.3144 23.2597 21.1251 23.8451 19.736C24.2361 18.8079 24.452 17.7921 24.452 16.715C24.452 15.1005 23.9669 13.6186 23.1328 12.3773C22.2976 11.1381 21.1125 10.1519 19.7277 9.56438C18.8035 9.17171 17.7903 8.95447 16.7167 8.95447C15.1078 8.95549 13.63 9.44199 12.3946 10.2793Z" fill="white"/>
</mask>
<g mask="url(#mask1_1547_394)">
<path fill-rule="evenodd" clip-rule="evenodd" d="M12.3946 10.2793C11.1583 11.1167 10.1748 12.3049 9.58933 13.695C9.1994 14.6232 8.98242 15.638 8.98242 16.715C8.98345 18.3306 9.46754 19.8115 10.3027 21.0527C11.1358 22.293 12.3209 23.2792 13.7067 23.8667C14.6309 24.2583 15.6441 24.4756 16.7167 24.4766C18.3266 24.4746 19.8035 23.9881 21.0408 23.1507C22.2761 22.3144 23.2597 21.1251 23.8451 19.736C24.2361 18.8079 24.452 17.7921 24.452 16.715C24.452 15.1005 23.9669 13.6186 23.1328 12.3773C22.2976 11.1381 21.1125 10.1519 19.7277 9.56438C18.8035 9.17171 17.7903 8.95447 16.7167 8.95447C15.1078 8.95549 13.63 9.44199 12.3946 10.2793Z" fill="url(#paint0_linear_1547_394)"/>
</g>
<mask id="mask2_1547_394" style="mask-type:luminance" maskUnits="userSpaceOnUse" x="17" y="0" width="17" height="17">
<path fill-rule="evenodd" clip-rule="evenodd" d="M17.1064 0.00476074V5.36953C19.2167 5.52456 21.1841 6.24054 22.8394 7.36755C24.7232 8.64959 26.2184 10.4599 27.1149 12.5977C27.6065 13.7645 27.9125 15.0292 28.0083 16.3479H33.4588V0.00476074H17.1064Z" fill="white"/>
</mask>
<g mask="url(#mask2_1547_394)">
<path fill-rule="evenodd" clip-rule="evenodd" d="M17.1064 0.00476074V5.36953C19.2167 5.52456 21.1841 6.24054 22.8394 7.36755C24.7232 8.64959 26.2184 10.4599 27.1149 12.5977C27.6065 13.7645 27.9125 15.0292 28.0083 16.3479H33.4588V0.00476074H17.1064Z" fill="url(#paint1_linear_1547_394)"/>
</g>
<mask id="mask3_1547_394" style="mask-type:luminance" maskUnits="userSpaceOnUse" x="17" y="18" width="17" height="17">
<path fill-rule="evenodd" clip-rule="evenodd" d="M28.0124 18.0465C27.8584 20.171 27.1475 22.1496 26.0266 23.8172C24.7528 25.7143 22.9547 27.2186 20.8332 28.1223C19.6746 28.6149 18.417 28.925 17.1064 29.0218V34.3591C18.4109 34.2846 19.7113 34.0633 20.9781 33.6859C23.179 33.026 25.2821 31.9174 27.1506 30.3294C27.3821 30.1336 27.6045 29.9285 27.8268 29.7225C30.4154 27.2788 32.2063 25.1319 32.8754 21.6346C32.9488 21.2501 33.2568 19.6376 33.3119 19.2429C33.3588 18.9022 33.3986 18.5014 33.4343 18.0465H28.0124Z" fill="white"/>
</mask>
<g mask="url(#mask3_1547_394)">
<path fill-rule="evenodd" clip-rule="evenodd" d="M28.0124 18.0465C27.8584 20.171 27.1475 22.1496 26.0266 23.8172C24.7528 25.7143 22.9547 27.2186 20.8332 28.1223C19.6746 28.6149 18.417 28.925 17.1064 29.0218V34.3591C18.4109 34.2846 19.7113 34.0633 20.9781 33.6859C23.179 33.026 25.2821 31.9174 27.1506 30.3294C27.3821 30.1336 27.6045 29.9285 27.8268 29.7225C30.4154 27.2788 32.2063 25.1319 32.8754 21.6346C32.9488 21.2501 33.2568 19.6376 33.3119 19.2429C33.3588 18.9022 33.3986 18.5014 33.4343 18.0465H28.0124Z" fill="url(#paint2_linear_1547_394)"/>
</g>
<mask id="mask4_1547_394" style="mask-type:luminance" maskUnits="userSpaceOnUse" x="0" y="0" width="17" height="17">
<path fill-rule="evenodd" clip-rule="evenodd" d="M6.76507 3.48444C6.52539 3.66904 6.29183 3.86079 6.06133 4.05661C4.1908 5.64462 2.74762 7.53861 1.7328 9.61618C0.69962 11.7305 0.119287 14.0243 0.000976562 16.3456H5.42286C5.57687 14.2232 6.28877 12.2435 7.40966 10.5769C8.68252 8.6799 10.4806 7.17552 12.6021 6.27187C13.7607 5.77823 15.0182 5.4692 16.3278 5.3723V0.0197754C12.8519 0.167663 9.54741 1.36301 6.76507 3.48444Z" fill="white"/>
</mask>
<g mask="url(#mask4_1547_394)">
<path fill-rule="evenodd" clip-rule="evenodd" d="M6.76507 3.48444C6.52539 3.66904 6.29183 3.86079 6.06133 4.05661C4.1908 5.64462 2.74762 7.53861 1.7328 9.61618C0.69962 11.7305 0.119287 14.0243 0.000976562 16.3456H5.42286C5.57687 14.2232 6.28877 12.2435 7.40966 10.5769C8.68252 8.6799 10.4806 7.17552 12.6021 6.27187C13.7607 5.77823 15.0182 5.4692 16.3278 5.3723V0.0197754C12.8519 0.167663 9.54741 1.36301 6.76507 3.48444Z" fill="url(#paint3_linear_1547_394)"/>
</g>
<mask id="mask5_1547_394" style="mask-type:luminance" maskUnits="userSpaceOnUse" x="0" y="18" width="17" height="17">
<path fill-rule="evenodd" clip-rule="evenodd" d="M0 18.0435C0.182565 21.6723 1.5003 25.2737 4.00726 28.2671C7.2149 32.0959 11.724 34.1633 16.3279 34.3703V29.0249C14.2177 28.8699 12.2513 28.1529 10.5959 27.0259C8.71214 25.7438 7.21796 23.9335 6.32043 21.7957C5.82985 20.6289 5.52183 19.3632 5.42596 18.0435H0Z" fill="white"/>
</mask>
<g mask="url(#mask5_1547_394)">
<path fill-rule="evenodd" clip-rule="evenodd" d="M0 18.0435C0.182565 21.6723 1.5003 25.2737 4.00726 28.2671C7.2149 32.0959 11.724 34.1633 16.3279 34.3703V29.0249C14.2177 28.8699 12.2513 28.1529 10.5959 27.0259C8.71214 25.7438 7.21796 23.9335 6.32043 21.7957C5.82985 20.6289 5.52183 19.3632 5.42596 18.0435H0Z" fill="url(#paint4_linear_1547_394)"/>
</g>
<defs>
<linearGradient id="paint0_linear_1547_394" x1="8.98217" y1="24.4767" x2="24.4523" y2="24.4767" gradientUnits="userSpaceOnUse">
<stop stop-color="#9D262A"/>
<stop offset="1" stop-color="#CA232A"/>
</linearGradient>
<linearGradient id="paint1_linear_1547_394" x1="31.7334" y1="17.3435" x2="36.1798" y2="0.730733" gradientUnits="userSpaceOnUse">
<stop stop-color="#9D262A"/>
<stop offset="1" stop-color="#CA232A"/>
</linearGradient>
<linearGradient id="paint2_linear_1547_394" x1="31.8827" y1="38.3135" x2="37.0457" y2="19.0089" gradientUnits="userSpaceOnUse">
<stop stop-color="#9D262A"/>
<stop offset="1" stop-color="#CA232A"/>
</linearGradient>
<linearGradient id="paint3_linear_1547_394" x1="15.7167" y1="20.5563" x2="20.8913" y2="1.24187" gradientUnits="userSpaceOnUse">
<stop stop-color="#9D262A"/>
<stop offset="1" stop-color="#CA232A"/>
</linearGradient>
<linearGradient id="paint4_linear_1547_394" x1="13.0139" y1="33.8967" x2="16.4684" y2="21.0025" gradientUnits="userSpaceOnUse">
<stop stop-color="#9D262A"/>
<stop offset="1" stop-color="#CA232A"/>
</linearGradient>
</defs>
</svg>
