<svg width="160" height="47" viewBox="0 0 160 47" fill="none" xmlns="http://www.w3.org/2000/svg">
<path fill-rule="evenodd" clip-rule="evenodd" d="M33.9045 37.1988H38.5281V15.4558H33.9045V37.1988ZM33.9043 11.8887H38.5279V7.14526H33.9043V11.8887Z" fill="#1F294D"/>
<path fill-rule="evenodd" clip-rule="evenodd" d="M44.2793 15.4867H48.5673V18.6005H48.6507C50.1653 16.2858 52.8125 14.981 55.6296 14.981C58.1934 14.981 60.9255 16.118 61.9763 18.0956C63.0279 20.0739 63.0279 21.5473 63.0279 24.5347V37.2865H58.3618V25.0396C58.3618 22.3464 58.3618 18.7269 54.2421 18.7269C52.3082 18.7269 50.5013 19.8219 49.8278 21.168C49.1551 22.515 48.9454 23.9876 48.9454 26.3023V37.2865H44.2793V15.4867Z" fill="#1F294D"/>
<path fill-rule="evenodd" clip-rule="evenodd" d="M81.3562 21.7151C80.8518 18.8955 78.1618 18.5583 76.7743 18.5583C75.3867 18.5583 72.5291 18.8955 72.5291 20.9152C72.5291 22.3043 73.7895 22.8935 77.6574 23.7769C82.7858 24.9553 86.6108 26.1337 86.6108 30.5532C86.6108 33.962 84.0041 37.7914 77.2365 37.7914C70.6793 37.7914 68.0727 34.0884 67.4429 30.8895L72.0661 30.1747C72.6546 33.7513 75.5972 34.2141 77.1944 34.2141C77.8671 34.2141 81.8184 34.1298 81.8184 31.2259C81.8184 30.1318 81.1878 29.3748 78.8345 28.8269C72.1082 27.27 68.1156 26.1337 68.1156 21.5044C68.1156 17.2543 71.9398 14.981 76.312 14.981C79.2125 14.981 84.761 15.4867 85.8126 20.9573L81.3562 21.7151Z" fill="#1F294D"/>
<mask id="mask0_1208_10953" style="mask-type:luminance" maskUnits="userSpaceOnUse" x="0" y="0" width="160" height="47">
<path fill-rule="evenodd" clip-rule="evenodd" d="M0 46.446H160V0H0V46.446Z" fill="white"/>
</mask>
<g mask="url(#mask0_1208_10953)">
<path fill-rule="evenodd" clip-rule="evenodd" d="M91.1064 37.2861H95.7725V15.4863H91.1064V37.2861ZM91.1064 11.9099H95.7725V7.15405H91.1064V11.9099Z" fill="#1F294D"/>
<path fill-rule="evenodd" clip-rule="evenodd" d="M105.062 26.2605C105.062 30.0478 106.659 33.4566 110.4 33.4566C112.333 33.4566 113.637 32.4468 114.225 31.8154C115.865 30.2164 115.949 26.8076 115.949 25.8812C115.949 23.1459 114.897 18.643 110.4 18.643C106.155 18.643 105.062 22.9773 105.062 26.2605ZM106.029 39.5593C106.155 40.4849 106.491 42.7493 110.106 42.7493C111.241 42.7493 114.1 42.1682 115.109 40.275C115.781 39.0544 115.781 38.3388 115.781 34.13H115.697C115.025 35.0142 113.175 37.286 109.392 37.286C103.255 37.286 100.27 31.6468 100.27 26.2604C100.27 19.4841 103.885 14.9812 109.56 14.9812C113.469 14.9812 115.319 17.2959 116.034 18.3065H116.117V15.4869H120.447V34.6771C120.447 37.7074 120.195 41.0741 118.64 42.9681C116.749 45.2828 113.721 46.4102 110.695 46.4102C107.08 46.4102 100.774 45.3241 101.027 38.928L106.029 39.5593Z" fill="#1F294D"/>
<path fill-rule="evenodd" clip-rule="evenodd" d="M126.122 7.15369H130.788V18.0958C133.268 15.1919 136 14.9811 137.388 14.9811C139.573 14.9811 142.431 15.7811 143.693 17.8858C144.744 19.6527 144.87 21.5467 144.87 23.9457V37.2867H140.204V24.5349C140.204 22.2202 140.204 18.7271 136.084 18.7271C134.235 18.7271 132.427 19.6948 131.67 21.0418C130.914 22.4723 130.788 23.8614 130.788 25.8397V37.2867H126.122V7.15369Z" fill="#1F294D"/>
<path fill-rule="evenodd" clip-rule="evenodd" d="M155.713 15.4865H159.538V19.1482H155.713V30.006C155.713 32.4463 155.713 33.6247 157.393 33.6247C158.319 33.6247 159.117 33.3727 159.496 33.2462L160 37.0757C159.285 37.3285 158.277 37.6649 156.511 37.6649C151.046 37.6649 151.046 34.2982 151.046 30.2581V19.1482H148.356V15.4865H151.046V10.9277L155.713 7.0553V15.4865Z" fill="#1F294D"/>
<path fill-rule="evenodd" clip-rule="evenodd" d="M38.3108 41.7099L37.8583 42.4312C37.6138 42.2367 37.2188 42.1394 36.6748 42.1394C36.1591 42.1394 35.7357 42.3104 35.4062 42.6541C35.0768 42.9969 34.9124 43.4321 34.9124 43.9573C34.9124 44.4825 35.0646 44.8999 35.3706 45.2078C35.6766 45.5166 36.0846 45.6714 36.5946 45.6714C37.1783 45.6714 37.634 45.5061 37.9643 45.1746L38.476 45.8789C38.0275 46.2566 37.3709 46.4462 36.5064 46.4462C35.6402 46.4462 34.9683 46.2201 34.489 45.7687C34.0106 45.3164 33.771 44.7005 33.771 43.92C33.771 43.1938 34.0365 42.586 34.5676 42.0973C35.0986 41.6086 35.7786 41.3646 36.6076 41.3646C37.3167 41.3646 37.8858 41.4797 38.3108 41.7099Z" fill="#9C262A"/>
<path fill-rule="evenodd" clip-rule="evenodd" d="M41.513 43.8632C41.513 44.4378 41.6352 44.8827 41.8805 45.198C42.1258 45.5141 42.482 45.6713 42.9499 45.6713C43.4995 45.6713 43.9189 45.5173 44.2079 45.2085C44.4969 44.8997 44.641 44.4515 44.641 43.8632C44.641 42.7115 44.1051 42.1361 43.0349 42.1361C42.5435 42.1361 42.1687 42.2917 41.9056 42.6037C41.6441 42.9157 41.513 43.3355 41.513 43.8632ZM40.3706 43.8631C40.3706 43.1637 40.6127 42.5712 41.0951 42.0874C41.5784 41.6027 42.2252 41.3612 43.0339 41.3612C43.9236 41.3612 44.6044 41.58 45.0756 42.0185C45.5459 42.457 45.7815 43.0713 45.7815 43.8631C45.7815 44.6549 45.5362 45.283 45.0432 45.7482C44.5518 46.2135 43.854 46.4461 42.9489 46.4461C42.1176 46.4461 41.4805 46.2159 41.036 45.7547C40.5924 45.2944 40.3706 44.6638 40.3706 43.8631Z" fill="#9C262A"/>
<path fill-rule="evenodd" clip-rule="evenodd" d="M52.1133 46.4291L49.1075 43.3202V46.3651H48.0503V41.448H48.5797L51.5045 44.4135V41.448H52.5618V46.4291H52.1133Z" fill="#9C262A"/>
<path fill-rule="evenodd" clip-rule="evenodd" d="M54.8315 46.0903L55.2379 45.309C55.6718 45.5505 56.0984 45.6713 56.5186 45.6713C57.1638 45.6713 57.4868 45.4922 57.4868 45.1348C57.4868 44.967 57.4115 44.8074 57.2585 44.655C57.1071 44.5026 56.793 44.3324 56.3178 44.1436C55.8434 43.9547 55.5229 43.7991 55.3577 43.6768C55.1934 43.5552 55.0663 43.4101 54.9781 43.2423C54.889 43.0754 54.8453 42.8898 54.8453 42.6856C54.8453 42.3063 55.0194 41.9902 55.3707 41.7397C55.722 41.4893 56.1721 41.3645 56.7218 41.3645C57.4382 41.3645 57.9628 41.4707 58.2979 41.683L57.9644 42.4343C57.5791 42.2155 57.1719 42.1053 56.7428 42.1053C56.4894 42.1053 56.2927 42.1588 56.1535 42.2649C56.0134 42.3711 55.9438 42.5097 55.9438 42.6791C55.9438 42.9611 56.3364 43.2537 57.1233 43.5576C57.5378 43.7189 57.8365 43.8672 58.0194 44.0026C58.2024 44.1379 58.3424 44.2951 58.438 44.4751C58.5335 44.655 58.5821 44.856 58.5821 45.0772C58.5821 45.4752 58.3837 45.8034 57.9879 46.0603C57.5912 46.3172 57.061 46.4461 56.3964 46.4461C55.8184 46.4461 55.297 46.327 54.8315 46.0903Z" fill="#9C262A"/>
<path fill-rule="evenodd" clip-rule="evenodd" d="M60.8506 41.4485H61.9499V44.7787C61.9499 45.0429 62.0511 45.2577 62.2543 45.423C62.4575 45.5883 62.736 45.671 63.0922 45.671C63.4888 45.671 63.7981 45.59 64.0199 45.4279C64.2401 45.2658 64.351 45.0445 64.351 44.7625V41.4485H65.4503V44.8289C65.4503 45.3347 65.2374 45.731 64.81 46.0171C64.3825 46.3032 63.8126 46.4466 63.1003 46.4466C62.3814 46.4466 61.8269 46.3064 61.4367 46.0268C61.0457 45.7472 60.8506 45.3476 60.8506 44.8257V41.4485Z" fill="#9C262A"/>
<path fill-rule="evenodd" clip-rule="evenodd" d="M68.019 46.3623V41.4485H69.1184V45.5875H71.9169V46.3623H68.019Z" fill="#9C262A"/>
<path fill-rule="evenodd" clip-rule="evenodd" d="M75.9805 42.2233V46.3623H74.882V42.2233H72.9116V41.4485H78.0391V42.2233H75.9805Z" fill="#9C262A"/>
<path fill-rule="evenodd" clip-rule="evenodd" d="M80.0762 46.3626H81.1747V41.4487H80.0762V46.3626Z" fill="#9C262A"/>
<path fill-rule="evenodd" clip-rule="evenodd" d="M87.8267 46.4291L84.8209 43.3202V46.3651H83.7637V41.448H84.2923L87.2179 44.4135V41.448H88.2751V46.4291H87.8267Z" fill="#9C262A"/>
<path fill-rule="evenodd" clip-rule="evenodd" d="M95.415 41.8473L94.9552 42.5483C94.8249 42.4568 94.6249 42.366 94.3537 42.2752C94.0834 42.1844 93.851 42.1391 93.6567 42.1391C93.048 42.1391 92.5671 42.3028 92.215 42.6302C91.8628 42.9584 91.6872 43.3969 91.6872 43.9472C91.6872 44.4708 91.8596 44.8882 92.2044 45.2018C92.5501 45.5146 93.0196 45.6711 93.6146 45.6711C94.0064 45.6711 94.3286 45.586 94.5828 45.4166V44.4505H93.7247V43.7057H95.6814V45.9061C95.4199 46.0763 95.0823 46.2084 94.6694 46.304C94.2558 46.3989 93.8462 46.4459 93.4374 46.4459C92.5493 46.4459 91.8458 46.2149 91.3253 45.7537C90.8056 45.2918 90.5449 44.6815 90.5449 43.9237C90.5449 43.1651 90.8291 42.55 91.3949 42.0758C91.9616 41.6017 92.7242 41.3643 93.6818 41.3643C94.361 41.3643 94.939 41.5255 95.415 41.8473Z" fill="#9C262A"/>
</g>
<mask id="mask1_1208_10953" style="mask-type:luminance" maskUnits="userSpaceOnUse" x="7" y="7" width="13" height="13">
<path fill-rule="evenodd" clip-rule="evenodd" d="M9.91532 8.22347C8.92625 8.89335 8.13941 9.84392 7.67108 10.956C7.35913 11.6985 7.18555 12.5104 7.18555 13.372C7.18637 14.6645 7.57364 15.8492 8.24176 16.8422C8.90823 17.8344 9.85637 18.6234 10.965 19.0933C11.7043 19.4067 12.5149 19.5805 13.373 19.5813C14.6609 19.5796 15.8424 19.1904 16.8323 18.5206C17.8205 17.8515 18.6074 16.9001 19.0757 15.7888C19.3885 15.0463 19.5612 14.2336 19.5612 13.372C19.5612 12.0804 19.1731 10.8948 18.5058 9.90185C17.8377 8.91049 16.8896 8.12148 15.7818 7.6515C15.0424 7.33737 14.2319 7.16357 13.373 7.16357C12.0859 7.16439 10.9036 7.55359 9.91532 8.22347Z" fill="white"/>
</mask>
<g mask="url(#mask1_1208_10953)">
<path fill-rule="evenodd" clip-rule="evenodd" d="M9.91532 8.22347C8.92625 8.89335 8.13941 9.84392 7.67108 10.956C7.35913 11.6985 7.18555 12.5104 7.18555 13.372C7.18637 14.6645 7.57364 15.8492 8.24176 16.8422C8.90823 17.8344 9.85637 18.6234 10.965 19.0933C11.7043 19.4067 12.5149 19.5805 13.373 19.5813C14.6609 19.5796 15.8424 19.1904 16.8323 18.5206C17.8205 17.8515 18.6074 16.9001 19.0757 15.7888C19.3885 15.0463 19.5612 14.2336 19.5612 13.372C19.5612 12.0804 19.1731 10.8948 18.5058 9.90185C17.8377 8.91049 16.8896 8.12148 15.7818 7.6515C15.0424 7.33737 14.2319 7.16357 13.373 7.16357C12.0859 7.16439 10.9036 7.55359 9.91532 8.22347Z" fill="url(#paint0_linear_1208_10953)"/>
</g>
<mask id="mask2_1208_10953" style="mask-type:luminance" maskUnits="userSpaceOnUse" x="13" y="0" width="14" height="14">
<path fill-rule="evenodd" clip-rule="evenodd" d="M13.6855 0.00378418V4.2956C15.3737 4.41962 16.9477 4.99241 18.2719 5.89401C19.7789 6.91964 20.9751 8.36793 21.6923 10.0781C22.0856 11.0116 22.3304 12.0233 22.4071 13.0783H26.7674V0.00378418H13.6855Z" fill="white"/>
</mask>
<g mask="url(#mask2_1208_10953)">
<path fill-rule="evenodd" clip-rule="evenodd" d="M13.6855 0.00378418V4.2956C15.3737 4.41962 16.9477 4.99241 18.2719 5.89401C19.7789 6.91964 20.9751 8.36793 21.6923 10.0781C22.0856 11.0116 22.3304 12.0233 22.4071 13.0783H26.7674V0.00378418H13.6855Z" fill="url(#paint1_linear_1208_10953)"/>
</g>
<mask id="mask3_1208_10953" style="mask-type:luminance" maskUnits="userSpaceOnUse" x="13" y="14" width="14" height="14">
<path fill-rule="evenodd" clip-rule="evenodd" d="M22.4103 14.4373C22.2871 16.1368 21.7184 17.7198 20.8217 19.0538C19.8026 20.5714 18.3641 21.775 16.667 22.4979C15.7401 22.892 14.734 23.14 13.6855 23.2175V27.4873C14.7291 27.4277 15.7694 27.2507 16.7828 26.9488C18.5436 26.4209 20.2261 25.534 21.7209 24.2636C21.9061 24.1069 22.084 23.9429 22.2618 23.7781C24.3327 21.8231 25.7655 20.1056 26.3007 17.3077C26.3595 17.0001 26.6059 15.7101 26.6499 15.3943C26.6875 15.1218 26.7193 14.8012 26.7478 14.4373H22.4103Z" fill="white"/>
</mask>
<g mask="url(#mask3_1208_10953)">
<path fill-rule="evenodd" clip-rule="evenodd" d="M22.4103 14.4373C22.2871 16.1368 21.7184 17.7198 20.8217 19.0538C19.8026 20.5714 18.3641 21.775 16.667 22.4979C15.7401 22.892 14.734 23.14 13.6855 23.2175V27.4873C14.7291 27.4277 15.7694 27.2507 16.7828 26.9488C18.5436 26.4209 20.2261 25.534 21.7209 24.2636C21.9061 24.1069 22.084 23.9429 22.2618 23.7781C24.3327 21.8231 25.7655 20.1056 26.3007 17.3077C26.3595 17.0001 26.6059 15.7101 26.6499 15.3943C26.6875 15.1218 26.7193 14.8012 26.7478 14.4373H22.4103Z" fill="url(#paint2_linear_1208_10953)"/>
</g>
<mask id="mask4_1208_10953" style="mask-type:luminance" maskUnits="userSpaceOnUse" x="0" y="0" width="14" height="14">
<path fill-rule="evenodd" clip-rule="evenodd" d="M5.41323 2.7876C5.22148 2.93528 5.03464 3.08868 4.85023 3.24534C3.35381 4.51575 2.19926 6.03094 1.38741 7.693C0.560868 9.38443 0.0966015 11.2195 0.00195312 13.0765H4.33946C4.46267 11.3786 5.03219 9.79484 5.9289 8.4616C6.94719 6.94397 8.38568 5.74046 10.0828 5.01755C11.0097 4.62263 12.0158 4.37541 13.0634 4.29789V0.0158691C10.2827 0.13418 7.6391 1.09045 5.41323 2.7876Z" fill="white"/>
</mask>
<g mask="url(#mask4_1208_10953)">
<path fill-rule="evenodd" clip-rule="evenodd" d="M5.41323 2.7876C5.22148 2.93528 5.03464 3.08868 4.85023 3.24534C3.35381 4.51575 2.19926 6.03094 1.38741 7.693C0.560868 9.38443 0.0966015 11.2195 0.00195312 13.0765H4.33946C4.46267 11.3786 5.03219 9.79484 5.9289 8.4616C6.94719 6.94397 8.38568 5.74046 10.0828 5.01755C11.0097 4.62263 12.0158 4.37541 13.0634 4.29789V0.0158691C10.2827 0.13418 7.6391 1.09045 5.41323 2.7876Z" fill="url(#paint3_linear_1208_10953)"/>
</g>
<mask id="mask5_1208_10953" style="mask-type:luminance" maskUnits="userSpaceOnUse" x="0" y="14" width="14" height="14">
<path fill-rule="evenodd" clip-rule="evenodd" d="M0 14.4347C0.146052 17.3378 1.20024 20.2189 3.20581 22.6136C5.77192 25.6766 9.37917 27.3305 13.0623 27.4962V23.2199C11.3741 23.0958 9.801 22.5222 8.47674 21.6206C6.96971 20.595 5.77437 19.1467 5.05635 17.4365C4.66388 16.5031 4.41747 15.4905 4.34077 14.4347H0Z" fill="white"/>
</mask>
<g mask="url(#mask5_1208_10953)">
<path fill-rule="evenodd" clip-rule="evenodd" d="M0 14.4347C0.146052 17.3378 1.20024 20.2189 3.20581 22.6136C5.77192 25.6766 9.37917 27.3305 13.0623 27.4962V23.2199C11.3741 23.0958 9.801 22.5222 8.47674 21.6206C6.96971 20.595 5.77437 19.1467 5.05635 17.4365C4.66388 16.5031 4.41747 15.4905 4.34077 14.4347H0Z" fill="url(#paint4_linear_1208_10953)"/>
</g>
<defs>
<linearGradient id="paint0_linear_1208_10953" x1="7.18535" y1="19.5814" x2="19.5615" y2="19.5814" gradientUnits="userSpaceOnUse">
<stop stop-color="#9D262A"/>
<stop offset="1" stop-color="#CA232A"/>
</linearGradient>
<linearGradient id="paint1_linear_1208_10953" x1="25.3871" y1="13.8748" x2="28.9442" y2="0.584562" gradientUnits="userSpaceOnUse">
<stop stop-color="#9D262A"/>
<stop offset="1" stop-color="#CA232A"/>
</linearGradient>
<linearGradient id="paint2_linear_1208_10953" x1="25.5065" y1="30.6508" x2="29.6369" y2="15.2071" gradientUnits="userSpaceOnUse">
<stop stop-color="#9D262A"/>
<stop offset="1" stop-color="#CA232A"/>
</linearGradient>
<linearGradient id="paint3_linear_1208_10953" x1="12.5745" y1="16.4451" x2="16.7142" y2="0.993544" gradientUnits="userSpaceOnUse">
<stop stop-color="#9D262A"/>
<stop offset="1" stop-color="#CA232A"/>
</linearGradient>
<linearGradient id="paint4_linear_1208_10953" x1="10.4111" y1="27.1173" x2="13.1747" y2="16.8019" gradientUnits="userSpaceOnUse">
<stop stop-color="#9D262A"/>
<stop offset="1" stop-color="#CA232A"/>
</linearGradient>
</defs>
</svg>
