<svg width="100" height="32" viewBox="0 0 100 32" fill="none" xmlns="http://www.w3.org/2000/svg">
<path fill-rule="evenodd" clip-rule="evenodd" d="M23.1792 25.4288H26.3399V10.5655H23.1792V25.4288ZM23.1792 8.12683H26.3399V4.88428H23.1792V8.12683Z" fill="#1F294D"/>
<path fill-rule="evenodd" clip-rule="evenodd" d="M27.6763 10.5867H30.3563V12.7153H30.4084C31.3551 11.133 33.0095 10.241 34.7702 10.241C36.3726 10.241 38.0802 11.0183 38.7369 12.3701C39.3941 13.7225 39.3941 14.7297 39.3941 16.7718V25.4889H36.4778V17.117C36.4778 15.276 36.4778 12.8017 33.903 12.8017C32.6943 12.8017 31.565 13.5502 31.1441 14.4704C30.7236 15.3912 30.5926 16.3979 30.5926 17.9802V25.4889H27.6763V10.5867Z" fill="#1F294D"/>
<path fill-rule="evenodd" clip-rule="evenodd" d="M50.8467 14.8444C50.5315 12.9169 48.8502 12.6864 47.983 12.6864C47.1158 12.6864 45.3298 12.9169 45.3298 14.2976C45.3298 15.2472 46.1175 15.6499 48.535 16.2538C51.7402 17.0594 54.1308 17.8649 54.1308 20.8861C54.1308 23.2163 52.5017 25.8341 48.2719 25.8341C44.1737 25.8341 42.5445 23.3027 42.1509 21.116L45.0404 20.6273C45.4082 23.0722 47.2473 23.3886 48.2456 23.3886C48.666 23.3886 51.1356 23.331 51.1356 21.3459C51.1356 20.598 50.7414 20.0805 49.2706 19.706C45.0667 18.6417 42.5713 17.8649 42.5713 14.7003C42.5713 11.795 44.9614 10.241 47.6941 10.241C49.5069 10.241 52.9747 10.5867 53.632 14.3264L50.8467 14.8444Z" fill="#1F294D"/>
<mask id="mask0_1540_218" style="mask-type:luminance" maskUnits="userSpaceOnUse" x="0" y="0" width="100" height="32">
<path fill-rule="evenodd" clip-rule="evenodd" d="M0 31.7502H100V0H0V31.7502Z" fill="white"/>
</mask>
<g mask="url(#mask0_1540_218)">
<path fill-rule="evenodd" clip-rule="evenodd" d="M56.9419 25.4888H59.8582V10.5866H56.9419V25.4888ZM56.9419 8.14166H59.8582V4.89062H56.9419V8.14166Z" fill="#1F294D"/>
<path fill-rule="evenodd" clip-rule="evenodd" d="M65.6643 17.9516C65.6643 20.5406 66.6626 22.8708 69.0006 22.8708C70.2088 22.8708 71.0239 22.1805 71.3912 21.7489C72.4163 20.6558 72.4689 18.3256 72.4689 17.6923C72.4689 15.8225 71.8117 12.7443 69.0006 12.7443C66.3474 12.7443 65.6643 15.7073 65.6643 17.9516ZM66.2673 27.0427C66.3462 27.6754 66.5562 29.2233 68.8153 29.2233C69.5251 29.2233 71.3117 28.8261 71.9421 27.5319C72.3625 26.6975 72.3625 26.2083 72.3625 23.3312H72.3099C71.89 23.9357 70.7334 25.4886 68.369 25.4886C64.5334 25.4886 62.668 21.6337 62.668 17.9516C62.668 13.3194 64.9276 10.2412 68.4743 10.2412C70.9175 10.2412 72.0736 11.8235 72.5204 12.5144H72.5725V10.5869H75.2788V23.7052C75.2788 25.7767 75.121 28.0781 74.149 29.3729C72.9671 30.9552 71.0749 31.7259 69.1836 31.7259C66.924 31.7259 62.9832 30.9835 63.141 26.6111L66.2673 27.0427Z" fill="#1F294D"/>
<path fill-rule="evenodd" clip-rule="evenodd" d="M78.8247 4.89038H81.741V12.3703C83.2913 10.3852 84.9988 10.2412 85.866 10.2412C87.2321 10.2412 89.0181 10.788 89.8069 12.2268C90.4636 13.4346 90.5426 14.7294 90.5426 16.3693V25.4891H87.6263V16.7721C87.6263 15.1898 87.6263 12.8019 85.0515 12.8019C83.8954 12.8019 82.7656 13.4634 82.2925 14.3842C81.8199 15.3621 81.741 16.3117 81.741 17.664V25.4891H78.8247V4.89038Z" fill="#1F294D"/>
<path fill-rule="evenodd" clip-rule="evenodd" d="M97.3198 10.5865H99.7104V13.0896H97.3198V20.512C97.3198 22.1801 97.3198 22.9857 98.3701 22.9857C98.9484 22.9857 99.4473 22.8134 99.6841 22.727L99.9993 25.3447C99.5525 25.5176 98.9221 25.7475 97.8186 25.7475C94.403 25.7475 94.403 23.4461 94.403 20.6843V13.0896H92.7217V10.5865H94.403V7.47014L97.3198 4.823V10.5865Z" fill="#1F294D"/>
<path fill-rule="evenodd" clip-rule="evenodd" d="M23.9463 28.5129L23.6634 29.006C23.5106 28.873 23.2637 28.8065 22.9237 28.8065C22.6014 28.8065 22.3368 28.9234 22.1309 29.1583C21.925 29.3927 21.8223 29.6902 21.8223 30.0492C21.8223 30.4082 21.9174 30.6935 22.1086 30.9041C22.2999 31.1151 22.5549 31.221 22.8736 31.221C23.2384 31.221 23.5233 31.1079 23.7297 30.8813L24.0495 31.3628C23.7692 31.621 23.3589 31.7506 22.8185 31.7506C22.2771 31.7506 21.8572 31.596 21.5577 31.2874C21.2586 30.9783 21.1089 30.5572 21.1089 30.0237C21.1089 29.5273 21.2748 29.1118 21.6067 28.7777C21.9386 28.4436 22.3636 28.2769 22.8817 28.2769C23.325 28.2769 23.6806 28.3555 23.9463 28.5129Z" fill="#9C262A"/>
<path fill-rule="evenodd" clip-rule="evenodd" d="M25.9434 29.9847C25.9434 30.3775 26.0198 30.6817 26.1731 30.8972C26.3264 31.1133 26.549 31.2207 26.8415 31.2207C27.185 31.2207 27.4471 31.1155 27.6277 30.9044C27.8084 30.6933 27.8984 30.3869 27.8984 29.9847C27.8984 29.1974 27.5635 28.8041 26.8946 28.8041C26.5875 28.8041 26.3532 28.9104 26.1888 29.1237C26.0254 29.337 25.9434 29.624 25.9434 29.9847ZM25.23 29.9847C25.23 29.5066 25.3813 29.1016 25.6828 28.7708C25.9849 28.4395 26.3891 28.2744 26.8946 28.2744C27.4506 28.2744 27.8761 28.424 28.1706 28.7237C28.4645 29.0235 28.6118 29.4434 28.6118 29.9847C28.6118 30.526 28.4585 30.9554 28.1503 31.2734C27.8432 31.5914 27.4071 31.7504 26.8414 31.7504C26.3218 31.7504 25.9236 31.593 25.6459 31.2778C25.3686 30.9631 25.23 30.5321 25.23 29.9847Z" fill="#9C262A"/>
<path fill-rule="evenodd" clip-rule="evenodd" d="M32.5701 31.7386L30.6915 29.6133V31.6948H30.0308V28.3335H30.3617L32.1897 30.3607V28.3335H32.8504V31.7386H32.5701Z" fill="#9C262A"/>
<path fill-rule="evenodd" clip-rule="evenodd" d="M34.269 31.5071L34.523 30.9731C34.7942 31.1382 35.0609 31.2207 35.3234 31.2207C35.7267 31.2207 35.9286 31.0983 35.9286 30.8539C35.9286 30.7393 35.8815 30.6301 35.7859 30.526C35.6913 30.4218 35.495 30.3055 35.198 30.1764C34.9015 30.0473 34.7011 29.9409 34.5979 29.8573C34.4952 29.7741 34.4158 29.675 34.3606 29.5603C34.305 29.4462 34.2776 29.3193 34.2776 29.1797C34.2776 28.9204 34.3864 28.7043 34.606 28.5331C34.8256 28.3619 35.1069 28.2766 35.4504 28.2766C35.8982 28.2766 36.2261 28.3492 36.4355 28.4943L36.2271 29.0079C35.9862 28.8583 35.7318 28.783 35.4636 28.783C35.3052 28.783 35.1823 28.8196 35.0953 28.8921C35.0077 28.9647 34.9642 29.0595 34.9642 29.1752C34.9642 29.368 35.2096 29.568 35.7014 29.7758C35.9604 29.8861 36.1471 29.9874 36.2615 30.08C36.3758 30.1725 36.4634 30.28 36.5231 30.403C36.5828 30.526 36.6131 30.6634 36.6131 30.8146C36.6131 31.0866 36.4892 31.311 36.2418 31.4866C35.9938 31.6623 35.6624 31.7504 35.247 31.7504C34.8858 31.7504 34.56 31.6689 34.269 31.5071Z" fill="#9C262A"/>
<path fill-rule="evenodd" clip-rule="evenodd" d="M38.0317 28.334H38.7188V30.6105C38.7188 30.7911 38.7821 30.9379 38.9091 31.0509C39.0361 31.164 39.2101 31.2205 39.4327 31.2205C39.6806 31.2205 39.8739 31.1651 40.0125 31.0543C40.1502 30.9435 40.2195 30.7922 40.2195 30.5994V28.334H40.9066V30.6448C40.9066 30.9905 40.7735 31.2615 40.5064 31.457C40.2392 31.6526 39.883 31.7507 39.4378 31.7507C38.9885 31.7507 38.6419 31.6548 38.398 31.4637C38.1537 31.2725 38.0317 30.9994 38.0317 30.6426V28.334Z" fill="#9C262A"/>
<path fill-rule="evenodd" clip-rule="evenodd" d="M42.5103 31.6931V28.334H43.1973V31.1634H44.9464V31.6931H42.5103Z" fill="#9C262A"/>
<path fill-rule="evenodd" clip-rule="evenodd" d="M47.4869 28.8636V31.6931H46.8003V28.8636H45.5688V28.334H48.7736V28.8636H47.4869Z" fill="#9C262A"/>
<path fill-rule="evenodd" clip-rule="evenodd" d="M50.0488 31.6931H50.7354V28.334H50.0488V31.6931Z" fill="#9C262A"/>
<path fill-rule="evenodd" clip-rule="evenodd" d="M54.8914 31.7386L53.0128 29.6133V31.6948H52.3521V28.3335H52.6824L54.511 30.3607V28.3335H55.1717V31.7386H54.8914Z" fill="#9C262A"/>
<path fill-rule="evenodd" clip-rule="evenodd" d="M59.6341 28.6066L59.3468 29.0858C59.2653 29.0232 59.1403 28.9611 58.9708 28.8991C58.8019 28.837 58.6566 28.806 58.5352 28.806C58.1547 28.806 57.8542 28.9179 57.6341 29.1418C57.414 29.3661 57.3042 29.6659 57.3042 30.0421C57.3042 30.4 57.412 30.6853 57.6275 30.8997C57.8436 31.1135 58.137 31.2205 58.5089 31.2205C58.7538 31.2205 58.9552 31.1623 59.114 31.0465V30.3861H58.5777V29.877H59.8006V31.3811C59.6372 31.4975 59.4262 31.5878 59.1682 31.6532C58.9096 31.718 58.6536 31.7501 58.3981 31.7501C57.8431 31.7501 57.4034 31.5922 57.0781 31.277C56.7532 30.9612 56.5903 30.544 56.5903 30.026C56.5903 29.5074 56.7679 29.0869 57.1216 28.7628C57.4757 28.4387 57.9524 28.2764 58.5509 28.2764C58.9754 28.2764 59.3366 28.3866 59.6341 28.6066Z" fill="#9C262A"/>
</g>
<mask id="mask1_1540_218" style="mask-type:luminance" maskUnits="userSpaceOnUse" x="4" y="4" width="10" height="10">
<path fill-rule="evenodd" clip-rule="evenodd" d="M6.7767 5.62127C6.10058 6.0792 5.5627 6.729 5.24255 7.48923C5.0293 7.9968 4.91064 8.55178 4.91064 9.14078C4.9112 10.0243 5.17594 10.8342 5.63266 11.513C6.08826 12.1912 6.7364 12.7306 7.49424 13.0518C7.99965 13.266 8.55376 13.3848 9.14033 13.3854C10.0207 13.3843 10.8284 13.1182 11.5051 12.6603C12.1806 12.2029 12.7185 11.5526 13.0387 10.7929C13.2525 10.2853 13.3706 9.72978 13.3706 9.14078C13.3706 8.25784 13.1053 7.4474 12.6491 6.7686C12.1924 6.09091 11.5443 5.55155 10.787 5.23027C10.2816 5.01553 9.72746 4.89673 9.14033 4.89673C8.26047 4.89729 7.45226 5.16334 6.7767 5.62127Z" fill="white"/>
</mask>
<g mask="url(#mask1_1540_218)">
<path fill-rule="evenodd" clip-rule="evenodd" d="M6.7767 5.62127C6.10058 6.0792 5.5627 6.729 5.24255 7.48923C5.0293 7.9968 4.91064 8.55178 4.91064 9.14078C4.9112 10.0243 5.17594 10.8342 5.63266 11.513C6.08826 12.1912 6.7364 12.7306 7.49424 13.0518C7.99965 13.266 8.55376 13.3848 9.14033 13.3854C10.0207 13.3843 10.8284 13.1182 11.5051 12.6603C12.1806 12.2029 12.7185 11.5526 13.0387 10.7929C13.2525 10.2853 13.3706 9.72978 13.3706 9.14078C13.3706 8.25784 13.1053 7.4474 12.6491 6.7686C12.1924 6.09091 11.5443 5.55155 10.787 5.23027C10.2816 5.01553 9.72746 4.89673 9.14033 4.89673C8.26047 4.89729 7.45226 5.16334 6.7767 5.62127Z" fill="url(#paint0_linear_1540_218)"/>
</g>
<mask id="mask2_1540_218" style="mask-type:luminance" maskUnits="userSpaceOnUse" x="9" y="0" width="10" height="9">
<path fill-rule="evenodd" clip-rule="evenodd" d="M9.354 0.00268555V2.93654C10.508 3.02132 11.584 3.41288 12.4892 4.02921C13.5194 4.73032 14.3371 5.72036 14.8274 6.88944C15.0962 7.52753 15.2636 8.21916 15.316 8.94035H18.2967V0.00268555H9.354Z" fill="white"/>
</mask>
<g mask="url(#mask2_1540_218)">
<path fill-rule="evenodd" clip-rule="evenodd" d="M9.354 0.00268555V2.93654C10.508 3.02132 11.584 3.41288 12.4892 4.02921C13.5194 4.73032 14.3371 5.72036 14.8274 6.88944C15.0962 7.52753 15.2636 8.21916 15.316 8.94035H18.2967V0.00268555H9.354Z" fill="url(#paint1_linear_1540_218)"/>
</g>
<mask id="mask3_1540_218" style="mask-type:luminance" maskUnits="userSpaceOnUse" x="9" y="9" width="10" height="10">
<path fill-rule="evenodd" clip-rule="evenodd" d="M15.3182 9.8689C15.234 11.0307 14.8452 12.1128 14.2322 13.0247C13.5356 14.0622 12.5522 14.8849 11.3921 15.3791C10.7585 15.6485 10.0707 15.818 9.354 15.871V18.7898C10.0674 18.7491 10.7785 18.6281 11.4713 18.4217C12.675 18.0608 13.8251 17.4545 14.8469 16.5861C14.9735 16.479 15.0951 16.3669 15.2167 16.2542C16.6323 14.9178 17.6118 13.7437 17.9776 11.8311C18.0178 11.6208 18.1863 10.739 18.2164 10.5232C18.242 10.3369 18.2638 10.1177 18.2833 9.8689H15.3182Z" fill="white"/>
</mask>
<g mask="url(#mask3_1540_218)">
<path fill-rule="evenodd" clip-rule="evenodd" d="M15.3182 9.8689C15.234 11.0307 14.8452 12.1128 14.2322 13.0247C13.5356 14.0622 12.5522 14.8849 11.3921 15.3791C10.7585 15.6485 10.0707 15.818 9.354 15.871V18.7898C10.0674 18.7491 10.7785 18.6281 11.4713 18.4217C12.675 18.0608 13.8251 17.4545 14.8469 16.5861C14.9735 16.479 15.0951 16.3669 15.2167 16.2542C16.6323 14.9178 17.6118 13.7437 17.9776 11.8311C18.0178 11.6208 18.1863 10.739 18.2164 10.5232C18.242 10.3369 18.2638 10.1177 18.2833 9.8689H15.3182Z" fill="url(#paint2_linear_1540_218)"/>
</g>
<mask id="mask4_1540_218" style="mask-type:luminance" maskUnits="userSpaceOnUse" x="0" y="0" width="9" height="9">
<path fill-rule="evenodd" clip-rule="evenodd" d="M3.69911 1.90548C3.56804 2.00643 3.44031 2.11129 3.31426 2.21839C2.29131 3.08683 1.50207 4.12261 0.947089 5.25878C0.382071 6.41503 0.064701 7.66945 0 8.93893H2.96509C3.04932 7.77821 3.43864 6.69559 4.05162 5.78419C4.74772 4.74675 5.73106 3.92404 6.89122 3.42986C7.52484 3.1599 8.21257 2.99089 8.92874 2.93791V0.0107422C7.02787 0.0916185 5.2207 0.745322 3.69911 1.90548Z" fill="white"/>
</mask>
<g mask="url(#mask4_1540_218)">
<path fill-rule="evenodd" clip-rule="evenodd" d="M3.69911 1.90548C3.56804 2.00643 3.44031 2.11129 3.31426 2.21839C2.29131 3.08683 1.50207 4.12261 0.947089 5.25878C0.382071 6.41503 0.064701 7.66945 0 8.93893H2.96509C3.04932 7.77821 3.43864 6.69559 4.05162 5.78419C4.74772 4.74675 5.73106 3.92404 6.89122 3.42986C7.52484 3.1599 8.21257 2.99089 8.92874 2.93791V0.0107422C7.02787 0.0916185 5.2207 0.745322 3.69911 1.90548Z" fill="url(#paint3_linear_1540_218)"/>
</g>
<mask id="mask5_1540_218" style="mask-type:luminance" maskUnits="userSpaceOnUse" x="0" y="9" width="9" height="10">
<path fill-rule="evenodd" clip-rule="evenodd" d="M0 9.86743C0.0998404 11.852 0.820476 13.8214 2.19147 15.4585C3.94565 17.5524 6.41154 18.6829 8.9293 18.7962V15.8729C7.77528 15.7881 6.6999 15.396 5.79465 14.7797C4.76445 14.0786 3.94732 13.0885 3.45649 11.9195C3.1882 11.2814 3.01975 10.5892 2.96732 9.86743H0Z" fill="white"/>
</mask>
<g mask="url(#mask5_1540_218)">
<path fill-rule="evenodd" clip-rule="evenodd" d="M0 9.86743C0.0998404 11.852 0.820476 13.8214 2.19147 15.4585C3.94565 17.5524 6.41154 18.6829 8.9293 18.7962V15.8729C7.77528 15.7881 6.6999 15.396 5.79465 14.7797C4.76445 14.0786 3.94732 13.0885 3.45649 11.9195C3.1882 11.2814 3.01975 10.5892 2.96732 9.86743H0Z" fill="url(#paint4_linear_1540_218)"/>
</g>
<defs>
<linearGradient id="paint0_linear_1540_218" x1="4.91051" y1="13.3855" x2="13.3707" y2="13.3855" gradientUnits="userSpaceOnUse">
<stop stop-color="#9D262A"/>
<stop offset="1" stop-color="#CA232A"/>
</linearGradient>
<linearGradient id="paint1_linear_1540_218" x1="17.3531" y1="9.48483" x2="19.7847" y2="0.399701" gradientUnits="userSpaceOnUse">
<stop stop-color="#9D262A"/>
<stop offset="1" stop-color="#CA232A"/>
</linearGradient>
<linearGradient id="paint2_linear_1540_218" x1="17.4348" y1="20.9524" x2="20.2583" y2="10.3952" gradientUnits="userSpaceOnUse">
<stop stop-color="#9D262A"/>
<stop offset="1" stop-color="#CA232A"/>
</linearGradient>
<linearGradient id="paint3_linear_1540_218" x1="8.59452" y1="11.2417" x2="11.4244" y2="0.679074" gradientUnits="userSpaceOnUse">
<stop stop-color="#9D262A"/>
<stop offset="1" stop-color="#CA232A"/>
</linearGradient>
<linearGradient id="paint4_linear_1540_218" x1="7.11697" y1="18.5372" x2="9.00617" y2="11.4857" gradientUnits="userSpaceOnUse">
<stop stop-color="#9D262A"/>
<stop offset="1" stop-color="#CA232A"/>
</linearGradient>
</defs>
</svg>
