<svg width="684" height="134" viewBox="0 0 684 134" fill="none" xmlns="http://www.w3.org/2000/svg">
<line x1="99" y1="28" x2="585" y2="28" stroke="#D9D9D9" stroke-width="2" stroke-dasharray="6 6"/>
<line x1="99" y1="28" x2="402" y2="28" stroke="#C12628" stroke-width="2"/>
<circle cx="75" cy="29" r="28" fill="white" stroke="#C12628" stroke-width="2"/>
<circle cx="75" cy="29" r="24" fill="url(#paint0_linear_630_7735)"/>
<path d="M69.6934 34H63.7051V32.7402L65.8555 30.5664C66.2891 30.1211 66.6367 29.75 66.8984 29.4531C67.1641 29.1523 67.3555 28.8789 67.4727 28.6328C67.5938 28.3867 67.6543 28.123 67.6543 27.8418C67.6543 27.502 67.5586 27.248 67.3672 27.0801C67.1797 26.9082 66.9277 26.8223 66.6113 26.8223C66.2793 26.8223 65.957 26.8984 65.6445 27.0508C65.332 27.2031 65.0059 27.4199 64.666 27.7012L63.6816 26.5352C63.9277 26.3242 64.1875 26.125 64.4609 25.9375C64.7383 25.75 65.0586 25.5996 65.4219 25.4863C65.7891 25.3691 66.2285 25.3105 66.7402 25.3105C67.3027 25.3105 67.7852 25.4121 68.1875 25.6152C68.5938 25.8184 68.9062 26.0957 69.125 26.4473C69.3438 26.7949 69.4531 27.1895 69.4531 27.6309C69.4531 28.1035 69.3594 28.5352 69.1719 28.9258C68.9844 29.3164 68.7109 29.7031 68.3516 30.0859C67.9961 30.4688 67.5664 30.8926 67.0625 31.3574L65.9609 32.3945V32.4766H69.6934V34ZM73.6895 28.5273C74.2129 28.5273 74.6777 28.627 75.084 28.8262C75.4941 29.0254 75.8164 29.3184 76.0508 29.7051C76.2852 30.0918 76.4023 30.5684 76.4023 31.1348C76.4023 31.752 76.2734 32.2852 76.0156 32.7344C75.7617 33.1797 75.3809 33.5215 74.873 33.7598C74.3691 33.998 73.7402 34.1172 72.9863 34.1172C72.5371 34.1172 72.1133 34.0781 71.7148 34C71.3203 33.9258 70.9746 33.8105 70.6777 33.6543V32.0898C70.9746 32.2461 71.3301 32.3789 71.7441 32.4883C72.1621 32.5938 72.5547 32.6465 72.9219 32.6465C73.2812 32.6465 73.584 32.5996 73.8301 32.5059C74.0762 32.4082 74.2617 32.2598 74.3867 32.0605C74.5156 31.8574 74.5801 31.5996 74.5801 31.2871C74.5801 30.8691 74.4395 30.5488 74.1582 30.3262C73.877 30.1035 73.4453 29.9922 72.8633 29.9922C72.6406 29.9922 72.4082 30.0137 72.166 30.0566C71.9277 30.0996 71.7285 30.1426 71.5684 30.1855L70.8477 29.7988L71.1699 25.4336H75.8164V26.9688H72.7578L72.5996 28.6504C72.7324 28.623 72.877 28.5957 73.0332 28.5684C73.1895 28.541 73.4082 28.5273 73.6895 28.5273ZM79.3496 25.3105C80.0215 25.3105 80.5312 25.5449 80.8789 26.0137C81.2266 26.4824 81.4004 27.1406 81.4004 27.9883C81.4004 28.8359 81.2363 29.498 80.9082 29.9746C80.5801 30.4512 80.0605 30.6895 79.3496 30.6895C78.6895 30.6895 78.1875 30.4512 77.8438 29.9746C77.5 29.498 77.3281 28.8359 77.3281 27.9883C77.3281 27.1406 77.4883 26.4824 77.8086 26.0137C78.1328 25.5449 78.6465 25.3105 79.3496 25.3105ZM79.3613 26.5352C79.1699 26.5352 79.0293 26.6562 78.9395 26.8984C78.8496 27.1406 78.8047 27.5078 78.8047 28C78.8047 28.4922 78.8496 28.8613 78.9395 29.1074C79.0293 29.3535 79.1699 29.4766 79.3613 29.4766C79.5527 29.4766 79.6934 29.3555 79.7832 29.1133C79.877 28.8672 79.9238 28.4961 79.9238 28C79.9238 27.5078 79.877 27.1406 79.7832 26.8984C79.6934 26.6562 79.5527 26.5352 79.3613 26.5352ZM85.4316 25.4336L80.6797 34H79.2734L84.0254 25.4336H85.4316ZM85.3496 28.7324C86.0215 28.7324 86.5312 28.9668 86.8789 29.4355C87.2266 29.9043 87.4004 30.5625 87.4004 31.4102C87.4004 32.2539 87.2363 32.9141 86.9082 33.3906C86.5801 33.8672 86.0605 34.1055 85.3496 34.1055C84.6895 34.1055 84.1875 33.8672 83.8438 33.3906C83.5 32.9141 83.3281 32.2539 83.3281 31.4102C83.3281 30.5625 83.4883 29.9043 83.8086 29.4355C84.1328 28.9668 84.6465 28.7324 85.3496 28.7324ZM85.3613 29.957C85.1699 29.957 85.0293 30.0781 84.9395 30.3203C84.8496 30.5625 84.8047 30.9297 84.8047 31.4219C84.8047 31.9141 84.8496 32.2832 84.9395 32.5293C85.0293 32.7754 85.1699 32.8984 85.3613 32.8984C85.5527 32.8984 85.6934 32.7773 85.7832 32.5352C85.877 32.2891 85.9238 31.918 85.9238 31.4219C85.9238 30.9297 85.877 30.5625 85.7832 30.3203C85.6934 30.0781 85.5527 29.957 85.3613 29.957Z" fill="white"/>
<path d="M14.4336 89V79.0059H15.835V89H14.4336ZM26.5605 83.9072C26.5605 85.0329 26.3532 85.974 25.9385 86.7305C25.5238 87.4824 24.9222 88.0498 24.1338 88.4326C23.3499 88.8109 22.3975 89 21.2764 89H18.5352V79.0059H21.584C22.6048 79.0059 23.4867 79.1927 24.2295 79.5664C24.9723 79.9355 25.5465 80.4847 25.9521 81.2139C26.3577 81.9385 26.5605 82.8363 26.5605 83.9072ZM25.0908 83.9482C25.0908 83.0915 24.9518 82.3851 24.6738 81.8291C24.3958 81.2731 23.988 80.8607 23.4502 80.5918C22.9124 80.3184 22.2539 80.1816 21.4746 80.1816H19.9365V87.8105H21.2285C22.5182 87.8105 23.4844 87.487 24.127 86.8398C24.7695 86.1927 25.0908 85.2288 25.0908 83.9482ZM34.3604 89H28.748V79.0059H34.3604V80.209H30.1494V83.1826H34.1074V84.3721H30.1494V87.79H34.3604V89ZM42.7754 89L41.668 86.0264H37.751L36.6572 89H35.2012L39.0156 78.9648H40.4512L44.2451 89H42.7754ZM41.2783 84.8096L40.2256 81.8633C40.1937 81.763 40.1436 81.6126 40.0752 81.4121C40.0114 81.2116 39.9453 81.0042 39.877 80.79C39.8132 80.5758 39.7607 80.3981 39.7197 80.2568C39.6742 80.4437 39.6217 80.6419 39.5625 80.8516C39.5033 81.0566 39.444 81.2503 39.3848 81.4326C39.3301 81.6104 39.2845 81.7539 39.248 81.8633L38.1816 84.8096H41.2783ZM57.2676 83.9072C57.2676 85.0329 57.0602 85.974 56.6455 86.7305C56.2308 87.4824 55.6292 88.0498 54.8408 88.4326C54.057 88.8109 53.1045 89 51.9834 89H49.2422V79.0059H52.291C53.3118 79.0059 54.1937 79.1927 54.9365 79.5664C55.6794 79.9355 56.2536 80.4847 56.6592 81.2139C57.0648 81.9385 57.2676 82.8363 57.2676 83.9072ZM55.7979 83.9482C55.7979 83.0915 55.6589 82.3851 55.3809 81.8291C55.1029 81.2731 54.695 80.8607 54.1572 80.5918C53.6195 80.3184 52.9609 80.1816 52.1816 80.1816H50.6436V87.8105H51.9355C53.2253 87.8105 54.1914 87.487 54.834 86.8398C55.4766 86.1927 55.7979 85.2288 55.7979 83.9482ZM62.1689 81.3369C63.0986 81.3369 63.7936 81.5443 64.2539 81.959C64.7142 82.3691 64.9443 83.0186 64.9443 83.9072V89H63.96L63.6934 87.9062H63.6387C63.429 88.1797 63.2103 88.4076 62.9824 88.5898C62.7546 88.7721 62.4902 88.9089 62.1895 89C61.8932 89.0911 61.5309 89.1367 61.1025 89.1367C60.6468 89.1367 60.2412 89.0547 59.8857 88.8906C59.5303 88.7266 59.25 88.4805 59.0449 88.1523C58.8444 87.8197 58.7441 87.3981 58.7441 86.8877C58.7441 86.1221 59.0381 85.541 59.626 85.1445C60.2139 84.748 61.1048 84.5316 62.2988 84.4951L63.5977 84.4404V84.0166C63.5977 83.4287 63.4655 83.014 63.2012 82.7725C62.9414 82.5309 62.5768 82.4102 62.1074 82.4102C61.7201 82.4102 61.3486 82.4671 60.9932 82.5811C60.6377 82.6904 60.2959 82.8226 59.9678 82.9775L59.5303 81.9795C59.8857 81.7972 60.2891 81.6445 60.7402 81.5215C61.196 81.3984 61.6722 81.3369 62.1689 81.3369ZM63.584 85.3428L62.5312 85.3906C61.6608 85.4225 61.0479 85.5684 60.6924 85.8281C60.3415 86.0833 60.166 86.4411 60.166 86.9014C60.166 87.3024 60.2868 87.5964 60.5283 87.7832C60.7699 87.9701 61.0889 88.0635 61.4854 88.0635C62.096 88.0635 62.5973 87.8926 62.9893 87.5508C63.3857 87.2044 63.584 86.694 63.584 86.0195V85.3428ZM69.8662 88.0225C70.0622 88.0225 70.2604 88.0065 70.4609 87.9746C70.6615 87.9382 70.8346 87.8926 70.9805 87.8379V88.8906C70.8255 88.959 70.6182 89.016 70.3584 89.0615C70.1032 89.1117 69.8411 89.1367 69.5723 89.1367C69.1621 89.1367 68.7907 89.0661 68.458 88.9248C68.1253 88.7835 67.8587 88.542 67.6582 88.2002C67.4622 87.8584 67.3643 87.3844 67.3643 86.7783V82.5264H66.3184V81.8906L67.4121 81.3848L67.8975 79.7578H68.7451V81.4668H70.9258V82.5264H68.7451V86.7578C68.7451 87.1816 68.8454 87.4984 69.0459 87.708C69.251 87.9176 69.5244 88.0225 69.8662 88.0225ZM75.3896 81.3369C76.3193 81.3369 77.0143 81.5443 77.4746 81.959C77.9349 82.3691 78.165 83.0186 78.165 83.9072V89H77.1807L76.9141 87.9062H76.8594C76.6497 88.1797 76.431 88.4076 76.2031 88.5898C75.9753 88.7721 75.7109 88.9089 75.4102 89C75.1139 89.0911 74.7516 89.1367 74.3232 89.1367C73.8675 89.1367 73.4619 89.0547 73.1064 88.8906C72.751 88.7266 72.4707 88.4805 72.2656 88.1523C72.0651 87.8197 71.9648 87.3981 71.9648 86.8877C71.9648 86.1221 72.2588 85.541 72.8467 85.1445C73.4346 84.748 74.3255 84.5316 75.5195 84.4951L76.8184 84.4404V84.0166C76.8184 83.4287 76.6862 83.014 76.4219 82.7725C76.1621 82.5309 75.7975 82.4102 75.3281 82.4102C74.9408 82.4102 74.5693 82.4671 74.2139 82.5811C73.8584 82.6904 73.5166 82.8226 73.1885 82.9775L72.751 81.9795C73.1064 81.7972 73.5098 81.6445 73.9609 81.5215C74.4167 81.3984 74.8929 81.3369 75.3896 81.3369ZM76.8047 85.3428L75.752 85.3906C74.8815 85.4225 74.2686 85.5684 73.9131 85.8281C73.5622 86.0833 73.3867 86.4411 73.3867 86.9014C73.3867 87.3024 73.5075 87.5964 73.749 87.7832C73.9906 87.9701 74.3096 88.0635 74.7061 88.0635C75.3167 88.0635 75.818 87.8926 76.21 87.5508C76.6064 87.2044 76.8047 86.694 76.8047 86.0195V85.3428ZM90.5039 89L89.3965 86.0264H85.4795L84.3857 89H82.9297L86.7441 78.9648H88.1797L91.9736 89H90.5039ZM89.0068 84.8096L87.9541 81.8633C87.9222 81.763 87.8721 81.6126 87.8037 81.4121C87.7399 81.2116 87.6738 81.0042 87.6055 80.79C87.5417 80.5758 87.4893 80.3981 87.4482 80.2568C87.4027 80.4437 87.3503 80.6419 87.291 80.8516C87.2318 81.0566 87.1725 81.2503 87.1133 81.4326C87.0586 81.6104 87.013 81.7539 86.9766 81.8633L85.9102 84.8096H89.0068ZM96.9092 81.3301C97.7796 81.3301 98.4473 81.5488 98.9121 81.9863C99.3815 82.4238 99.6162 83.1257 99.6162 84.0918V89H98.2559V84.2764C98.2559 83.6748 98.1237 83.2236 97.8594 82.9229C97.5951 82.6175 97.1895 82.4648 96.6426 82.4648C95.8633 82.4648 95.3164 82.695 95.002 83.1553C94.6921 83.6156 94.5371 84.2832 94.5371 85.1582V89H93.1631V81.4668H94.25L94.4482 82.5264H94.5234C94.6829 82.262 94.8857 82.041 95.1318 81.8633C95.3779 81.6855 95.6514 81.5534 95.9521 81.4668C96.2575 81.3757 96.5765 81.3301 96.9092 81.3301ZM104.798 81.3369C105.728 81.3369 106.423 81.5443 106.883 81.959C107.343 82.3691 107.573 83.0186 107.573 83.9072V89H106.589L106.322 87.9062H106.268C106.058 88.1797 105.839 88.4076 105.611 88.5898C105.383 88.7721 105.119 88.9089 104.818 89C104.522 89.0911 104.16 89.1367 103.731 89.1367C103.276 89.1367 102.87 89.0547 102.515 88.8906C102.159 88.7266 101.879 88.4805 101.674 88.1523C101.473 87.8197 101.373 87.3981 101.373 86.8877C101.373 86.1221 101.667 85.541 102.255 85.1445C102.843 84.748 103.734 84.5316 104.928 84.4951L106.227 84.4404V84.0166C106.227 83.4287 106.094 83.014 105.83 82.7725C105.57 82.5309 105.206 82.4102 104.736 82.4102C104.349 82.4102 103.978 82.4671 103.622 82.5811C103.267 82.6904 102.925 82.8226 102.597 82.9775L102.159 81.9795C102.515 81.7972 102.918 81.6445 103.369 81.5215C103.825 81.3984 104.301 81.3369 104.798 81.3369ZM106.213 85.3428L105.16 85.3906C104.29 85.4225 103.677 85.5684 103.321 85.8281C102.97 86.0833 102.795 86.4411 102.795 86.9014C102.795 87.3024 102.916 87.5964 103.157 87.7832C103.399 87.9701 103.718 88.0635 104.114 88.0635C104.725 88.0635 105.226 87.8926 105.618 87.5508C106.015 87.2044 106.213 86.694 106.213 86.0195V85.3428ZM111.251 89H109.87V78.3633H111.251V89ZM112.434 81.4668H113.917L115.517 85.8076C115.599 86.0309 115.674 86.2497 115.742 86.4639C115.815 86.6735 115.877 86.8786 115.927 87.0791C115.981 87.2751 116.025 87.4688 116.057 87.6602H116.104C116.159 87.4277 116.237 87.1452 116.337 86.8125C116.437 86.4798 116.547 86.1426 116.665 85.8008L118.196 81.4668H119.673L116.419 90.0664C116.241 90.5449 116.025 90.9551 115.77 91.2969C115.519 91.6432 115.22 91.9076 114.874 92.0898C114.528 92.2767 114.118 92.3701 113.644 92.3701C113.425 92.3701 113.231 92.3564 113.062 92.3291C112.898 92.3063 112.757 92.279 112.639 92.2471V91.1533C112.739 91.1761 112.86 91.1966 113.001 91.2148C113.147 91.2331 113.297 91.2422 113.452 91.2422C113.739 91.2422 113.985 91.1852 114.19 91.0713C114.4 90.9619 114.578 90.8047 114.724 90.5996C114.874 90.3945 114.999 90.1553 115.1 89.8818L115.441 88.9932L112.434 81.4668ZM125.818 86.8945C125.818 87.3822 125.698 87.7946 125.456 88.1318C125.219 88.4645 124.873 88.7152 124.417 88.8838C123.961 89.0524 123.414 89.1367 122.776 89.1367C122.248 89.1367 121.792 89.0957 121.409 89.0137C121.026 88.9362 120.68 88.8223 120.37 88.6719V87.4551C120.703 87.6146 121.088 87.7559 121.525 87.8789C121.963 88.002 122.391 88.0635 122.811 88.0635C123.398 88.0635 123.822 87.9701 124.082 87.7832C124.346 87.5964 124.479 87.3434 124.479 87.0244C124.479 86.8376 124.426 86.6735 124.321 86.5322C124.216 86.3864 124.032 86.2428 123.768 86.1016C123.508 85.9557 123.134 85.7894 122.646 85.6025C122.168 85.4157 121.758 85.2288 121.416 85.042C121.079 84.8551 120.821 84.6296 120.644 84.3652C120.466 84.1009 120.377 83.7591 120.377 83.3398C120.377 82.6882 120.637 82.1914 121.156 81.8496C121.68 81.5033 122.371 81.3301 123.228 81.3301C123.683 81.3301 124.112 81.3757 124.513 81.4668C124.918 81.5579 125.306 81.6855 125.675 81.8496L125.23 82.9092C124.902 82.7679 124.565 82.6517 124.219 82.5605C123.872 82.4648 123.519 82.417 123.159 82.417C122.69 82.417 122.33 82.4922 122.079 82.6426C121.833 82.793 121.71 83.0003 121.71 83.2646C121.71 83.4697 121.767 83.6406 121.881 83.7773C121.999 83.9141 122.195 84.0485 122.469 84.1807C122.742 84.3083 123.111 84.4609 123.576 84.6387C124.036 84.8118 124.433 84.9919 124.766 85.1787C125.103 85.3656 125.363 85.5934 125.545 85.8623C125.727 86.1312 125.818 86.4753 125.818 86.8945ZM128.977 81.4668V89H127.603V81.4668H128.977ZM128.3 78.6162C128.519 78.6162 128.705 78.68 128.86 78.8076C129.02 78.9352 129.1 79.1426 129.1 79.4297C129.1 79.7168 129.02 79.9264 128.86 80.0586C128.705 80.1862 128.519 80.25 128.3 80.25C128.076 80.25 127.887 80.1862 127.732 80.0586C127.582 79.9264 127.507 79.7168 127.507 79.4297C127.507 79.1426 127.582 78.9352 127.732 78.8076C127.887 78.68 128.076 78.6162 128.3 78.6162ZM136.291 86.8945C136.291 87.3822 136.17 87.7946 135.929 88.1318C135.692 88.4645 135.345 88.7152 134.89 88.8838C134.434 89.0524 133.887 89.1367 133.249 89.1367C132.72 89.1367 132.265 89.0957 131.882 89.0137C131.499 88.9362 131.153 88.8223 130.843 88.6719V87.4551C131.175 87.6146 131.561 87.7559 131.998 87.8789C132.436 88.002 132.864 88.0635 133.283 88.0635C133.871 88.0635 134.295 87.9701 134.555 87.7832C134.819 87.5964 134.951 87.3434 134.951 87.0244C134.951 86.8376 134.899 86.6735 134.794 86.5322C134.689 86.3864 134.505 86.2428 134.24 86.1016C133.98 85.9557 133.607 85.7894 133.119 85.6025C132.641 85.4157 132.23 85.2288 131.889 85.042C131.551 84.8551 131.294 84.6296 131.116 84.3652C130.938 84.1009 130.85 83.7591 130.85 83.3398C130.85 82.6882 131.109 82.1914 131.629 81.8496C132.153 81.5033 132.843 81.3301 133.7 81.3301C134.156 81.3301 134.584 81.3757 134.985 81.4668C135.391 81.5579 135.778 81.6855 136.147 81.8496L135.703 82.9092C135.375 82.7679 135.038 82.6517 134.691 82.5605C134.345 82.4648 133.992 82.417 133.632 82.417C133.162 82.417 132.802 82.4922 132.552 82.6426C132.306 82.793 132.183 83.0003 132.183 83.2646C132.183 83.4697 132.24 83.6406 132.354 83.7773C132.472 83.9141 132.668 84.0485 132.941 84.1807C133.215 84.3083 133.584 84.4609 134.049 84.6387C134.509 84.8118 134.906 84.9919 135.238 85.1787C135.576 85.3656 135.835 85.5934 136.018 85.8623C136.2 86.1312 136.291 86.4753 136.291 86.8945ZM53.3301 109V99.0059H54.7314V107.783H59.0723V109H53.3301ZM63.5771 101.33C64.2334 101.33 64.7962 101.471 65.2656 101.754C65.735 102.032 66.0951 102.426 66.3457 102.937C66.5964 103.447 66.7217 104.049 66.7217 104.741V105.521H61.6084C61.6221 106.327 61.8294 106.947 62.2305 107.38C62.6315 107.808 63.1943 108.022 63.9189 108.022C64.3975 108.022 64.8236 107.977 65.1973 107.886C65.571 107.795 65.9583 107.66 66.3594 107.482V108.638C65.9811 108.811 65.6006 108.936 65.2178 109.014C64.8395 109.096 64.3861 109.137 63.8574 109.137C63.1283 109.137 62.488 108.991 61.9365 108.699C61.3896 108.408 60.9635 107.977 60.6582 107.407C60.3529 106.833 60.2002 106.127 60.2002 105.288C60.2002 104.459 60.3392 103.75 60.6172 103.162C60.8952 102.57 61.2871 102.116 61.793 101.802C62.2988 101.487 62.8936 101.33 63.5771 101.33ZM63.5703 102.396C63.0143 102.396 62.5677 102.579 62.2305 102.943C61.8932 103.303 61.695 103.821 61.6357 104.495H65.3408C65.3363 104.08 65.2702 103.716 65.1426 103.401C65.015 103.087 64.8213 102.841 64.5615 102.663C64.3063 102.485 63.9759 102.396 63.5703 102.396ZM70.29 109L67.4258 101.467H68.8818L70.4883 105.958C70.5931 106.254 70.6956 106.578 70.7959 106.929C70.9007 107.28 70.9714 107.569 71.0078 107.797H71.0557C71.1012 107.564 71.1787 107.273 71.2881 106.922C71.3975 106.571 71.5023 106.25 71.6025 105.958L73.2021 101.467H74.665L71.7939 109H70.29ZM78.7939 101.33C79.4502 101.33 80.013 101.471 80.4824 101.754C80.9518 102.032 81.3118 102.426 81.5625 102.937C81.8132 103.447 81.9385 104.049 81.9385 104.741V105.521H76.8252C76.8389 106.327 77.0462 106.947 77.4473 107.38C77.8483 107.808 78.4111 108.022 79.1357 108.022C79.6143 108.022 80.0404 107.977 80.4141 107.886C80.7878 107.795 81.1751 107.66 81.5762 107.482V108.638C81.1979 108.811 80.8174 108.936 80.4346 109.014C80.0563 109.096 79.6029 109.137 79.0742 109.137C78.3451 109.137 77.7048 108.991 77.1533 108.699C76.6064 108.408 76.1803 107.977 75.875 107.407C75.5697 106.833 75.417 106.127 75.417 105.288C75.417 104.459 75.556 103.75 75.834 103.162C76.112 102.57 76.5039 102.116 77.0098 101.802C77.5156 101.487 78.1104 101.33 78.7939 101.33ZM78.7871 102.396C78.2311 102.396 77.7845 102.579 77.4473 102.943C77.11 103.303 76.9118 103.821 76.8525 104.495H80.5576C80.5531 104.08 80.487 103.716 80.3594 103.401C80.2318 103.087 80.0381 102.841 79.7783 102.663C79.5231 102.485 79.1927 102.396 78.7871 102.396ZM85.1924 109H83.8115V98.3633H85.1924V109ZM95.1318 109H93.7715V102.239C93.7715 101.998 93.7715 101.777 93.7715 101.576C93.776 101.371 93.7829 101.177 93.792 100.995C93.8011 100.808 93.8102 100.628 93.8193 100.455C93.7008 100.578 93.5755 100.697 93.4434 100.811C93.3158 100.92 93.1676 101.045 92.999 101.187L91.8574 102.109L91.1533 101.207L93.9902 99.0059H95.1318V109Z" fill="#4A4A4A"/>
<circle cx="253" cy="29" r="28" fill="white" stroke="#C12628" stroke-width="2"/>
<circle cx="253" cy="29" r="24" fill="url(#paint1_linear_630_7735)"/>
<path d="M244.822 28.5273C245.346 28.5273 245.811 28.627 246.217 28.8262C246.627 29.0254 246.949 29.3184 247.184 29.7051C247.418 30.0918 247.535 30.5684 247.535 31.1348C247.535 31.752 247.406 32.2852 247.148 32.7344C246.895 33.1797 246.514 33.5215 246.006 33.7598C245.502 33.998 244.873 34.1172 244.119 34.1172C243.67 34.1172 243.246 34.0781 242.848 34C242.453 33.9258 242.107 33.8105 241.811 33.6543V32.0898C242.107 32.2461 242.463 32.3789 242.877 32.4883C243.295 32.5938 243.688 32.6465 244.055 32.6465C244.414 32.6465 244.717 32.5996 244.963 32.5059C245.209 32.4082 245.395 32.2598 245.52 32.0605C245.648 31.8574 245.713 31.5996 245.713 31.2871C245.713 30.8691 245.572 30.5488 245.291 30.3262C245.01 30.1035 244.578 29.9922 243.996 29.9922C243.773 29.9922 243.541 30.0137 243.299 30.0566C243.061 30.0996 242.861 30.1426 242.701 30.1855L241.98 29.7988L242.303 25.4336H246.949V26.9688H243.891L243.732 28.6504C243.865 28.623 244.01 28.5957 244.166 28.5684C244.322 28.541 244.541 28.5273 244.822 28.5273ZM254.514 29.7168C254.514 30.4082 254.459 31.0254 254.35 31.5684C254.244 32.1113 254.072 32.5723 253.834 32.9512C253.6 33.3301 253.291 33.6191 252.908 33.8184C252.525 34.0176 252.061 34.1172 251.514 34.1172C250.826 34.1172 250.262 33.9434 249.82 33.5957C249.379 33.2441 249.053 32.7402 248.842 32.084C248.631 31.4238 248.525 30.6348 248.525 29.7168C248.525 28.791 248.621 28 248.812 27.3438C249.008 26.6836 249.324 26.1777 249.762 25.8262C250.199 25.4746 250.783 25.2988 251.514 25.2988C252.197 25.2988 252.76 25.4746 253.201 25.8262C253.646 26.1738 253.977 26.6777 254.191 27.3379C254.406 27.9941 254.514 28.7871 254.514 29.7168ZM250.324 29.7168C250.324 30.3691 250.359 30.9141 250.43 31.3516C250.504 31.7852 250.627 32.1113 250.799 32.3301C250.971 32.5488 251.209 32.6582 251.514 32.6582C251.814 32.6582 252.051 32.5508 252.223 32.3359C252.398 32.1172 252.523 31.791 252.598 31.3574C252.672 30.9199 252.709 30.373 252.709 29.7168C252.709 29.0645 252.672 28.5195 252.598 28.082C252.523 27.6445 252.398 27.3164 252.223 27.0977C252.051 26.875 251.814 26.7637 251.514 26.7637C251.209 26.7637 250.971 26.875 250.799 27.0977C250.627 27.3164 250.504 27.6445 250.43 28.082C250.359 28.5195 250.324 29.0645 250.324 29.7168ZM257.35 25.3105C258.021 25.3105 258.531 25.5449 258.879 26.0137C259.227 26.4824 259.4 27.1406 259.4 27.9883C259.4 28.8359 259.236 29.498 258.908 29.9746C258.58 30.4512 258.061 30.6895 257.35 30.6895C256.689 30.6895 256.188 30.4512 255.844 29.9746C255.5 29.498 255.328 28.8359 255.328 27.9883C255.328 27.1406 255.488 26.4824 255.809 26.0137C256.133 25.5449 256.646 25.3105 257.35 25.3105ZM257.361 26.5352C257.17 26.5352 257.029 26.6562 256.939 26.8984C256.85 27.1406 256.805 27.5078 256.805 28C256.805 28.4922 256.85 28.8613 256.939 29.1074C257.029 29.3535 257.17 29.4766 257.361 29.4766C257.553 29.4766 257.693 29.3555 257.783 29.1133C257.877 28.8672 257.924 28.4961 257.924 28C257.924 27.5078 257.877 27.1406 257.783 26.8984C257.693 26.6562 257.553 26.5352 257.361 26.5352ZM263.432 25.4336L258.68 34H257.273L262.025 25.4336H263.432ZM263.35 28.7324C264.021 28.7324 264.531 28.9668 264.879 29.4355C265.227 29.9043 265.4 30.5625 265.4 31.4102C265.4 32.2539 265.236 32.9141 264.908 33.3906C264.58 33.8672 264.061 34.1055 263.35 34.1055C262.689 34.1055 262.188 33.8672 261.844 33.3906C261.5 32.9141 261.328 32.2539 261.328 31.4102C261.328 30.5625 261.488 29.9043 261.809 29.4355C262.133 28.9668 262.646 28.7324 263.35 28.7324ZM263.361 29.957C263.17 29.957 263.029 30.0781 262.939 30.3203C262.85 30.5625 262.805 30.9297 262.805 31.4219C262.805 31.9141 262.85 32.2832 262.939 32.5293C263.029 32.7754 263.17 32.8984 263.361 32.8984C263.553 32.8984 263.693 32.7773 263.783 32.5352C263.877 32.2891 263.924 31.918 263.924 31.4219C263.924 30.9297 263.877 30.5625 263.783 30.3203C263.693 30.0781 263.553 29.957 263.361 29.957Z" fill="white"/>
<path d="M192.434 89V79.0059H193.835V89H192.434ZM204.561 83.9072C204.561 85.0329 204.353 85.974 203.938 86.7305C203.524 87.4824 202.922 88.0498 202.134 88.4326C201.35 88.8109 200.397 89 199.276 89H196.535V79.0059H199.584C200.605 79.0059 201.487 79.1927 202.229 79.5664C202.972 79.9355 203.547 80.4847 203.952 81.2139C204.358 81.9385 204.561 82.8363 204.561 83.9072ZM203.091 83.9482C203.091 83.0915 202.952 82.3851 202.674 81.8291C202.396 81.2731 201.988 80.8607 201.45 80.5918C200.912 80.3184 200.254 80.1816 199.475 80.1816H197.937V87.8105H199.229C200.518 87.8105 201.484 87.487 202.127 86.8398C202.77 86.1927 203.091 85.2288 203.091 83.9482ZM212.36 89H206.748V79.0059H212.36V80.209H208.149V83.1826H212.107V84.3721H208.149V87.79H212.36V89ZM220.775 89L219.668 86.0264H215.751L214.657 89H213.201L217.016 78.9648H218.451L222.245 89H220.775ZM219.278 84.8096L218.226 81.8633C218.194 81.763 218.144 81.6126 218.075 81.4121C218.011 81.2116 217.945 81.0042 217.877 80.79C217.813 80.5758 217.761 80.3981 217.72 80.2568C217.674 80.4437 217.622 80.6419 217.562 80.8516C217.503 81.0566 217.444 81.2503 217.385 81.4326C217.33 81.6104 217.285 81.7539 217.248 81.8633L216.182 84.8096H219.278ZM235.268 83.9072C235.268 85.0329 235.06 85.974 234.646 86.7305C234.231 87.4824 233.629 88.0498 232.841 88.4326C232.057 88.8109 231.104 89 229.983 89H227.242V79.0059H230.291C231.312 79.0059 232.194 79.1927 232.937 79.5664C233.679 79.9355 234.254 80.4847 234.659 81.2139C235.065 81.9385 235.268 82.8363 235.268 83.9072ZM233.798 83.9482C233.798 83.0915 233.659 82.3851 233.381 81.8291C233.103 81.2731 232.695 80.8607 232.157 80.5918C231.619 80.3184 230.961 80.1816 230.182 80.1816H228.644V87.8105H229.936C231.225 87.8105 232.191 87.487 232.834 86.8398C233.477 86.1927 233.798 85.2288 233.798 83.9482ZM240.169 81.3369C241.099 81.3369 241.794 81.5443 242.254 81.959C242.714 82.3691 242.944 83.0186 242.944 83.9072V89H241.96L241.693 87.9062H241.639C241.429 88.1797 241.21 88.4076 240.982 88.5898C240.755 88.7721 240.49 88.9089 240.189 89C239.893 89.0911 239.531 89.1367 239.103 89.1367C238.647 89.1367 238.241 89.0547 237.886 88.8906C237.53 88.7266 237.25 88.4805 237.045 88.1523C236.844 87.8197 236.744 87.3981 236.744 86.8877C236.744 86.1221 237.038 85.541 237.626 85.1445C238.214 84.748 239.105 84.5316 240.299 84.4951L241.598 84.4404V84.0166C241.598 83.4287 241.465 83.014 241.201 82.7725C240.941 82.5309 240.577 82.4102 240.107 82.4102C239.72 82.4102 239.349 82.4671 238.993 82.5811C238.638 82.6904 238.296 82.8226 237.968 82.9775L237.53 81.9795C237.886 81.7972 238.289 81.6445 238.74 81.5215C239.196 81.3984 239.672 81.3369 240.169 81.3369ZM241.584 85.3428L240.531 85.3906C239.661 85.4225 239.048 85.5684 238.692 85.8281C238.341 86.0833 238.166 86.4411 238.166 86.9014C238.166 87.3024 238.287 87.5964 238.528 87.7832C238.77 87.9701 239.089 88.0635 239.485 88.0635C240.096 88.0635 240.597 87.8926 240.989 87.5508C241.386 87.2044 241.584 86.694 241.584 86.0195V85.3428ZM247.866 88.0225C248.062 88.0225 248.26 88.0065 248.461 87.9746C248.661 87.9382 248.835 87.8926 248.98 87.8379V88.8906C248.826 88.959 248.618 89.016 248.358 89.0615C248.103 89.1117 247.841 89.1367 247.572 89.1367C247.162 89.1367 246.791 89.0661 246.458 88.9248C246.125 88.7835 245.859 88.542 245.658 88.2002C245.462 87.8584 245.364 87.3844 245.364 86.7783V82.5264H244.318V81.8906L245.412 81.3848L245.897 79.7578H246.745V81.4668H248.926V82.5264H246.745V86.7578C246.745 87.1816 246.845 87.4984 247.046 87.708C247.251 87.9176 247.524 88.0225 247.866 88.0225ZM253.39 81.3369C254.319 81.3369 255.014 81.5443 255.475 81.959C255.935 82.3691 256.165 83.0186 256.165 83.9072V89H255.181L254.914 87.9062H254.859C254.65 88.1797 254.431 88.4076 254.203 88.5898C253.975 88.7721 253.711 88.9089 253.41 89C253.114 89.0911 252.752 89.1367 252.323 89.1367C251.868 89.1367 251.462 89.0547 251.106 88.8906C250.751 88.7266 250.471 88.4805 250.266 88.1523C250.065 87.8197 249.965 87.3981 249.965 86.8877C249.965 86.1221 250.259 85.541 250.847 85.1445C251.435 84.748 252.326 84.5316 253.52 84.4951L254.818 84.4404V84.0166C254.818 83.4287 254.686 83.014 254.422 82.7725C254.162 82.5309 253.798 82.4102 253.328 82.4102C252.941 82.4102 252.569 82.4671 252.214 82.5811C251.858 82.6904 251.517 82.8226 251.188 82.9775L250.751 81.9795C251.106 81.7972 251.51 81.6445 251.961 81.5215C252.417 81.3984 252.893 81.3369 253.39 81.3369ZM254.805 85.3428L253.752 85.3906C252.882 85.4225 252.269 85.5684 251.913 85.8281C251.562 86.0833 251.387 86.4411 251.387 86.9014C251.387 87.3024 251.507 87.5964 251.749 87.7832C251.991 87.9701 252.31 88.0635 252.706 88.0635C253.317 88.0635 253.818 87.8926 254.21 87.5508C254.606 87.2044 254.805 86.694 254.805 86.0195V85.3428ZM268.504 89L267.396 86.0264H263.479L262.386 89H260.93L264.744 78.9648H266.18L269.974 89H268.504ZM267.007 84.8096L265.954 81.8633C265.922 81.763 265.872 81.6126 265.804 81.4121C265.74 81.2116 265.674 81.0042 265.605 80.79C265.542 80.5758 265.489 80.3981 265.448 80.2568C265.403 80.4437 265.35 80.6419 265.291 80.8516C265.232 81.0566 265.173 81.2503 265.113 81.4326C265.059 81.6104 265.013 81.7539 264.977 81.8633L263.91 84.8096H267.007ZM274.909 81.3301C275.78 81.3301 276.447 81.5488 276.912 81.9863C277.382 82.4238 277.616 83.1257 277.616 84.0918V89H276.256V84.2764C276.256 83.6748 276.124 83.2236 275.859 82.9229C275.595 82.6175 275.189 82.4648 274.643 82.4648C273.863 82.4648 273.316 82.695 273.002 83.1553C272.692 83.6156 272.537 84.2832 272.537 85.1582V89H271.163V81.4668H272.25L272.448 82.5264H272.523C272.683 82.262 272.886 82.041 273.132 81.8633C273.378 81.6855 273.651 81.5534 273.952 81.4668C274.257 81.3757 274.576 81.3301 274.909 81.3301ZM282.798 81.3369C283.728 81.3369 284.423 81.5443 284.883 81.959C285.343 82.3691 285.573 83.0186 285.573 83.9072V89H284.589L284.322 87.9062H284.268C284.058 88.1797 283.839 88.4076 283.611 88.5898C283.383 88.7721 283.119 88.9089 282.818 89C282.522 89.0911 282.16 89.1367 281.731 89.1367C281.276 89.1367 280.87 89.0547 280.515 88.8906C280.159 88.7266 279.879 88.4805 279.674 88.1523C279.473 87.8197 279.373 87.3981 279.373 86.8877C279.373 86.1221 279.667 85.541 280.255 85.1445C280.843 84.748 281.734 84.5316 282.928 84.4951L284.227 84.4404V84.0166C284.227 83.4287 284.094 83.014 283.83 82.7725C283.57 82.5309 283.206 82.4102 282.736 82.4102C282.349 82.4102 281.978 82.4671 281.622 82.5811C281.267 82.6904 280.925 82.8226 280.597 82.9775L280.159 81.9795C280.515 81.7972 280.918 81.6445 281.369 81.5215C281.825 81.3984 282.301 81.3369 282.798 81.3369ZM284.213 85.3428L283.16 85.3906C282.29 85.4225 281.677 85.5684 281.321 85.8281C280.97 86.0833 280.795 86.4411 280.795 86.9014C280.795 87.3024 280.916 87.5964 281.157 87.7832C281.399 87.9701 281.718 88.0635 282.114 88.0635C282.725 88.0635 283.226 87.8926 283.618 87.5508C284.015 87.2044 284.213 86.694 284.213 86.0195V85.3428ZM289.251 89H287.87V78.3633H289.251V89ZM290.434 81.4668H291.917L293.517 85.8076C293.599 86.0309 293.674 86.2497 293.742 86.4639C293.815 86.6735 293.877 86.8786 293.927 87.0791C293.981 87.2751 294.025 87.4688 294.057 87.6602H294.104C294.159 87.4277 294.237 87.1452 294.337 86.8125C294.437 86.4798 294.547 86.1426 294.665 85.8008L296.196 81.4668H297.673L294.419 90.0664C294.241 90.5449 294.025 90.9551 293.77 91.2969C293.519 91.6432 293.22 91.9076 292.874 92.0898C292.528 92.2767 292.118 92.3701 291.644 92.3701C291.425 92.3701 291.231 92.3564 291.062 92.3291C290.898 92.3063 290.757 92.279 290.639 92.2471V91.1533C290.739 91.1761 290.86 91.1966 291.001 91.2148C291.147 91.2331 291.297 91.2422 291.452 91.2422C291.739 91.2422 291.985 91.1852 292.19 91.0713C292.4 90.9619 292.578 90.8047 292.724 90.5996C292.874 90.3945 292.999 90.1553 293.1 89.8818L293.441 88.9932L290.434 81.4668ZM303.818 86.8945C303.818 87.3822 303.698 87.7946 303.456 88.1318C303.219 88.4645 302.873 88.7152 302.417 88.8838C301.961 89.0524 301.414 89.1367 300.776 89.1367C300.248 89.1367 299.792 89.0957 299.409 89.0137C299.026 88.9362 298.68 88.8223 298.37 88.6719V87.4551C298.703 87.6146 299.088 87.7559 299.525 87.8789C299.963 88.002 300.391 88.0635 300.811 88.0635C301.398 88.0635 301.822 87.9701 302.082 87.7832C302.346 87.5964 302.479 87.3434 302.479 87.0244C302.479 86.8376 302.426 86.6735 302.321 86.5322C302.216 86.3864 302.032 86.2428 301.768 86.1016C301.508 85.9557 301.134 85.7894 300.646 85.6025C300.168 85.4157 299.758 85.2288 299.416 85.042C299.079 84.8551 298.821 84.6296 298.644 84.3652C298.466 84.1009 298.377 83.7591 298.377 83.3398C298.377 82.6882 298.637 82.1914 299.156 81.8496C299.68 81.5033 300.371 81.3301 301.228 81.3301C301.683 81.3301 302.112 81.3757 302.513 81.4668C302.918 81.5579 303.306 81.6855 303.675 81.8496L303.23 82.9092C302.902 82.7679 302.565 82.6517 302.219 82.5605C301.872 82.4648 301.519 82.417 301.159 82.417C300.69 82.417 300.33 82.4922 300.079 82.6426C299.833 82.793 299.71 83.0003 299.71 83.2646C299.71 83.4697 299.767 83.6406 299.881 83.7773C299.999 83.9141 300.195 84.0485 300.469 84.1807C300.742 84.3083 301.111 84.4609 301.576 84.6387C302.036 84.8118 302.433 84.9919 302.766 85.1787C303.103 85.3656 303.363 85.5934 303.545 85.8623C303.727 86.1312 303.818 86.4753 303.818 86.8945ZM306.977 81.4668V89H305.603V81.4668H306.977ZM306.3 78.6162C306.519 78.6162 306.705 78.68 306.86 78.8076C307.02 78.9352 307.1 79.1426 307.1 79.4297C307.1 79.7168 307.02 79.9264 306.86 80.0586C306.705 80.1862 306.519 80.25 306.3 80.25C306.076 80.25 305.887 80.1862 305.732 80.0586C305.582 79.9264 305.507 79.7168 305.507 79.4297C305.507 79.1426 305.582 78.9352 305.732 78.8076C305.887 78.68 306.076 78.6162 306.3 78.6162ZM314.291 86.8945C314.291 87.3822 314.17 87.7946 313.929 88.1318C313.692 88.4645 313.345 88.7152 312.89 88.8838C312.434 89.0524 311.887 89.1367 311.249 89.1367C310.72 89.1367 310.265 89.0957 309.882 89.0137C309.499 88.9362 309.153 88.8223 308.843 88.6719V87.4551C309.175 87.6146 309.561 87.7559 309.998 87.8789C310.436 88.002 310.864 88.0635 311.283 88.0635C311.871 88.0635 312.295 87.9701 312.555 87.7832C312.819 87.5964 312.951 87.3434 312.951 87.0244C312.951 86.8376 312.899 86.6735 312.794 86.5322C312.689 86.3864 312.505 86.2428 312.24 86.1016C311.98 85.9557 311.607 85.7894 311.119 85.6025C310.641 85.4157 310.23 85.2288 309.889 85.042C309.551 84.8551 309.294 84.6296 309.116 84.3652C308.938 84.1009 308.85 83.7591 308.85 83.3398C308.85 82.6882 309.109 82.1914 309.629 81.8496C310.153 81.5033 310.843 81.3301 311.7 81.3301C312.156 81.3301 312.584 81.3757 312.985 81.4668C313.391 81.5579 313.778 81.6855 314.147 81.8496L313.703 82.9092C313.375 82.7679 313.038 82.6517 312.691 82.5605C312.345 82.4648 311.992 82.417 311.632 82.417C311.162 82.417 310.802 82.4922 310.552 82.6426C310.306 82.793 310.183 83.0003 310.183 83.2646C310.183 83.4697 310.24 83.6406 310.354 83.7773C310.472 83.9141 310.668 84.0485 310.941 84.1807C311.215 84.3083 311.584 84.4609 312.049 84.6387C312.509 84.8118 312.906 84.9919 313.238 85.1787C313.576 85.3656 313.835 85.5934 314.018 85.8623C314.2 86.1312 314.291 86.4753 314.291 86.8945ZM231.33 109V99.0059H232.731V107.783H237.072V109H231.33ZM241.577 101.33C242.233 101.33 242.796 101.471 243.266 101.754C243.735 102.032 244.095 102.426 244.346 102.937C244.596 103.447 244.722 104.049 244.722 104.741V105.521H239.608C239.622 106.327 239.829 106.947 240.23 107.38C240.632 107.808 241.194 108.022 241.919 108.022C242.397 108.022 242.824 107.977 243.197 107.886C243.571 107.795 243.958 107.66 244.359 107.482V108.638C243.981 108.811 243.601 108.936 243.218 109.014C242.84 109.096 242.386 109.137 241.857 109.137C241.128 109.137 240.488 108.991 239.937 108.699C239.39 108.408 238.964 107.977 238.658 107.407C238.353 106.833 238.2 106.127 238.2 105.288C238.2 104.459 238.339 103.75 238.617 103.162C238.895 102.57 239.287 102.116 239.793 101.802C240.299 101.487 240.894 101.33 241.577 101.33ZM241.57 102.396C241.014 102.396 240.568 102.579 240.23 102.943C239.893 103.303 239.695 103.821 239.636 104.495H243.341C243.336 104.08 243.27 103.716 243.143 103.401C243.015 103.087 242.821 102.841 242.562 102.663C242.306 102.485 241.976 102.396 241.57 102.396ZM248.29 109L245.426 101.467H246.882L248.488 105.958C248.593 106.254 248.696 106.578 248.796 106.929C248.901 107.28 248.971 107.569 249.008 107.797H249.056C249.101 107.564 249.179 107.273 249.288 106.922C249.397 106.571 249.502 106.25 249.603 105.958L251.202 101.467H252.665L249.794 109H248.29ZM256.794 101.33C257.45 101.33 258.013 101.471 258.482 101.754C258.952 102.032 259.312 102.426 259.562 102.937C259.813 103.447 259.938 104.049 259.938 104.741V105.521H254.825C254.839 106.327 255.046 106.947 255.447 107.38C255.848 107.808 256.411 108.022 257.136 108.022C257.614 108.022 258.04 107.977 258.414 107.886C258.788 107.795 259.175 107.66 259.576 107.482V108.638C259.198 108.811 258.817 108.936 258.435 109.014C258.056 109.096 257.603 109.137 257.074 109.137C256.345 109.137 255.705 108.991 255.153 108.699C254.606 108.408 254.18 107.977 253.875 107.407C253.57 106.833 253.417 106.127 253.417 105.288C253.417 104.459 253.556 103.75 253.834 103.162C254.112 102.57 254.504 102.116 255.01 101.802C255.516 101.487 256.11 101.33 256.794 101.33ZM256.787 102.396C256.231 102.396 255.785 102.579 255.447 102.943C255.11 103.303 254.912 103.821 254.853 104.495H258.558C258.553 104.08 258.487 103.716 258.359 103.401C258.232 103.087 258.038 102.841 257.778 102.663C257.523 102.485 257.193 102.396 256.787 102.396ZM263.192 109H261.812V98.3633H263.192V109ZM275.312 109H268.654V107.92L271.286 105.247C271.787 104.741 272.202 104.299 272.53 103.921C272.863 103.538 273.114 103.169 273.282 102.813C273.451 102.453 273.535 102.062 273.535 101.638C273.535 101.118 273.382 100.722 273.077 100.448C272.772 100.175 272.366 100.038 271.86 100.038C271.405 100.038 270.992 100.122 270.623 100.291C270.258 100.455 269.88 100.692 269.488 101.002L268.75 100.086C269.019 99.8581 269.311 99.653 269.625 99.4707C269.939 99.2839 270.284 99.1357 270.657 99.0264C271.031 98.917 271.446 98.8623 271.901 98.8623C272.526 98.8623 273.063 98.9717 273.515 99.1904C273.97 99.4092 274.321 99.7191 274.567 100.12C274.813 100.521 274.937 100.991 274.937 101.528C274.937 102.062 274.829 102.556 274.615 103.012C274.406 103.463 274.107 103.912 273.72 104.358C273.332 104.805 272.874 105.281 272.346 105.787L270.397 107.715V107.776H275.312V109Z" fill="#4A4A4A"/>
<circle cx="431" cy="29" r="28" fill="white" stroke="#C12628" stroke-width="2"/>
<circle cx="431" cy="29" r="24" fill="url(#paint2_linear_630_7735)"/>
<path d="M420.555 34L423.771 26.957H419.547V25.4336H425.693V26.5703L422.453 34H420.555ZM429.689 28.5273C430.213 28.5273 430.678 28.627 431.084 28.8262C431.494 29.0254 431.816 29.3184 432.051 29.7051C432.285 30.0918 432.402 30.5684 432.402 31.1348C432.402 31.752 432.273 32.2852 432.016 32.7344C431.762 33.1797 431.381 33.5215 430.873 33.7598C430.369 33.998 429.74 34.1172 428.986 34.1172C428.537 34.1172 428.113 34.0781 427.715 34C427.32 33.9258 426.975 33.8105 426.678 33.6543V32.0898C426.975 32.2461 427.33 32.3789 427.744 32.4883C428.162 32.5938 428.555 32.6465 428.922 32.6465C429.281 32.6465 429.584 32.5996 429.83 32.5059C430.076 32.4082 430.262 32.2598 430.387 32.0605C430.516 31.8574 430.58 31.5996 430.58 31.2871C430.58 30.8691 430.439 30.5488 430.158 30.3262C429.877 30.1035 429.445 29.9922 428.863 29.9922C428.641 29.9922 428.408 30.0137 428.166 30.0566C427.928 30.0996 427.729 30.1426 427.568 30.1855L426.848 29.7988L427.17 25.4336H431.816V26.9688H428.758L428.6 28.6504C428.732 28.623 428.877 28.5957 429.033 28.5684C429.189 28.541 429.408 28.5273 429.689 28.5273ZM435.35 25.3105C436.021 25.3105 436.531 25.5449 436.879 26.0137C437.227 26.4824 437.4 27.1406 437.4 27.9883C437.4 28.8359 437.236 29.498 436.908 29.9746C436.58 30.4512 436.061 30.6895 435.35 30.6895C434.689 30.6895 434.188 30.4512 433.844 29.9746C433.5 29.498 433.328 28.8359 433.328 27.9883C433.328 27.1406 433.488 26.4824 433.809 26.0137C434.133 25.5449 434.646 25.3105 435.35 25.3105ZM435.361 26.5352C435.17 26.5352 435.029 26.6562 434.939 26.8984C434.85 27.1406 434.805 27.5078 434.805 28C434.805 28.4922 434.85 28.8613 434.939 29.1074C435.029 29.3535 435.17 29.4766 435.361 29.4766C435.553 29.4766 435.693 29.3555 435.783 29.1133C435.877 28.8672 435.924 28.4961 435.924 28C435.924 27.5078 435.877 27.1406 435.783 26.8984C435.693 26.6562 435.553 26.5352 435.361 26.5352ZM441.432 25.4336L436.68 34H435.273L440.025 25.4336H441.432ZM441.35 28.7324C442.021 28.7324 442.531 28.9668 442.879 29.4355C443.227 29.9043 443.4 30.5625 443.4 31.4102C443.4 32.2539 443.236 32.9141 442.908 33.3906C442.58 33.8672 442.061 34.1055 441.35 34.1055C440.689 34.1055 440.188 33.8672 439.844 33.3906C439.5 32.9141 439.328 32.2539 439.328 31.4102C439.328 30.5625 439.488 29.9043 439.809 29.4355C440.133 28.9668 440.646 28.7324 441.35 28.7324ZM441.361 29.957C441.17 29.957 441.029 30.0781 440.939 30.3203C440.85 30.5625 440.805 30.9297 440.805 31.4219C440.805 31.9141 440.85 32.2832 440.939 32.5293C441.029 32.7754 441.17 32.8984 441.361 32.8984C441.553 32.8984 441.693 32.7773 441.783 32.5352C441.877 32.2891 441.924 31.918 441.924 31.4219C441.924 30.9297 441.877 30.5625 441.783 30.3203C441.693 30.0781 441.553 29.957 441.361 29.957Z" fill="white"/>
<path d="M381.098 89V79.0059H382.499V89H381.098ZM393.225 83.9072C393.225 85.0329 393.017 85.974 392.603 86.7305C392.188 87.4824 391.586 88.0498 390.798 88.4326C390.014 88.8109 389.062 89 387.94 89H385.199V79.0059H388.248C389.269 79.0059 390.151 79.1927 390.894 79.5664C391.636 79.9355 392.211 80.4847 392.616 81.2139C393.022 81.9385 393.225 82.8363 393.225 83.9072ZM391.755 83.9482C391.755 83.0915 391.616 82.3851 391.338 81.8291C391.06 81.2731 390.652 80.8607 390.114 80.5918C389.576 80.3184 388.918 80.1816 388.139 80.1816H386.601V87.8105H387.893C389.182 87.8105 390.148 87.487 390.791 86.8398C391.434 86.1927 391.755 85.2288 391.755 83.9482ZM401.024 89H395.412V79.0059H401.024V80.209H396.813V83.1826H400.771V84.3721H396.813V87.79H401.024V89ZM409.439 89L408.332 86.0264H404.415L403.321 89H401.865L405.68 78.9648H407.115L410.909 89H409.439ZM407.942 84.8096L406.89 81.8633C406.858 81.763 406.808 81.6126 406.739 81.4121C406.675 81.2116 406.609 81.0042 406.541 80.79C406.477 80.5758 406.425 80.3981 406.384 80.2568C406.338 80.4437 406.286 80.6419 406.227 80.8516C406.167 81.0566 406.108 81.2503 406.049 81.4326C405.994 81.6104 405.949 81.7539 405.912 81.8633L404.846 84.8096H407.942ZM421.614 86.3135C421.614 86.9059 421.466 87.4141 421.17 87.8379C420.878 88.2572 420.466 88.5785 419.933 88.8018C419.399 89.0251 418.766 89.1367 418.032 89.1367C417.663 89.1367 417.31 89.1162 416.973 89.0752C416.64 89.0387 416.33 88.984 416.043 88.9111C415.756 88.8382 415.496 88.7471 415.264 88.6377V87.3115C415.642 87.4665 416.079 87.6123 416.576 87.749C417.073 87.8812 417.586 87.9473 418.114 87.9473C418.575 87.9473 418.96 87.8857 419.27 87.7627C419.584 87.6351 419.821 87.4574 419.98 87.2295C420.14 87.0016 420.22 86.7282 420.22 86.4092C420.22 86.0902 420.142 85.8236 419.987 85.6094C419.832 85.3906 419.586 85.1901 419.249 85.0078C418.916 84.8255 418.479 84.6318 417.937 84.4268C417.558 84.29 417.214 84.1351 416.904 83.9619C416.594 83.7842 416.326 83.5814 416.098 83.3535C415.874 83.1257 415.701 82.859 415.578 82.5537C415.455 82.2438 415.394 81.8883 415.394 81.4873C415.394 80.9359 415.528 80.4642 415.797 80.0723C416.07 79.6803 416.451 79.3818 416.938 79.1768C417.426 78.9671 417.991 78.8623 418.634 78.8623C419.162 78.8623 419.655 78.9147 420.11 79.0195C420.571 79.1243 421.008 79.2679 421.423 79.4502L420.979 80.6123C420.591 80.4528 420.201 80.3229 419.81 80.2227C419.418 80.1224 419.012 80.0723 418.593 80.0723C418.205 80.0723 417.877 80.1292 417.608 80.2432C417.344 80.3571 417.141 80.5189 417 80.7285C416.863 80.9382 416.795 81.1865 416.795 81.4736C416.795 81.7972 416.868 82.0661 417.014 82.2803C417.16 82.4945 417.39 82.6882 417.704 82.8613C418.019 83.0345 418.429 83.2191 418.935 83.415C419.504 83.6338 419.987 83.8662 420.384 84.1123C420.785 84.3584 421.09 84.6546 421.3 85.001C421.509 85.3473 421.614 85.7848 421.614 86.3135ZM426.447 89.1367C425.755 89.1367 425.148 88.9977 424.629 88.7197C424.109 88.4417 423.706 88.0179 423.419 87.4482C423.136 86.874 422.995 86.1494 422.995 85.2744C422.995 84.363 423.148 83.6178 423.453 83.0391C423.758 82.4557 424.18 82.0251 424.718 81.7471C425.26 81.4691 425.88 81.3301 426.577 81.3301C426.987 81.3301 427.37 81.3711 427.726 81.4531C428.086 81.5352 428.386 81.6377 428.628 81.7607L428.218 82.875C427.963 82.7747 427.687 82.6859 427.391 82.6084C427.099 82.5309 426.821 82.4922 426.557 82.4922C426.074 82.4922 425.673 82.5993 425.354 82.8135C425.039 83.0231 424.802 83.333 424.643 83.7432C424.483 84.1533 424.403 84.6592 424.403 85.2607C424.403 85.8441 424.481 86.3385 424.636 86.7441C424.795 87.1452 425.028 87.4505 425.333 87.6602C425.643 87.8698 426.028 87.9746 426.488 87.9746C426.894 87.9746 427.258 87.929 427.582 87.8379C427.906 87.7467 428.204 87.6305 428.478 87.4893V88.6992C428.213 88.8451 427.922 88.9544 427.603 89.0273C427.284 89.1003 426.898 89.1367 426.447 89.1367ZM433.878 81.3301C434.015 81.3301 434.163 81.3392 434.322 81.3574C434.482 81.3711 434.618 81.3893 434.732 81.4121L434.589 82.6904C434.479 82.6631 434.352 82.6403 434.206 82.6221C434.065 82.6038 433.933 82.5947 433.81 82.5947C433.518 82.5947 433.24 82.6494 432.976 82.7588C432.711 82.8682 432.479 83.0277 432.278 83.2373C432.078 83.4424 431.921 83.6953 431.807 83.9961C431.693 84.2923 431.636 84.6318 431.636 85.0146V89H430.255V81.4668H431.362L431.526 82.8271H431.588C431.743 82.5537 431.93 82.3031 432.148 82.0752C432.372 81.8473 432.627 81.6673 432.914 81.5352C433.206 81.3984 433.527 81.3301 433.878 81.3301ZM437.508 81.4668V89H436.134V81.4668H437.508ZM436.831 78.6162C437.05 78.6162 437.237 78.68 437.392 78.8076C437.551 78.9352 437.631 79.1426 437.631 79.4297C437.631 79.7168 437.551 79.9264 437.392 80.0586C437.237 80.1862 437.05 80.25 436.831 80.25C436.608 80.25 436.419 80.1862 436.264 80.0586C436.113 79.9264 436.038 79.7168 436.038 79.4297C436.038 79.1426 436.113 78.9352 436.264 78.8076C436.419 78.68 436.608 78.6162 436.831 78.6162ZM443.558 81.3301C444.474 81.3301 445.205 81.6559 445.752 82.3076C446.303 82.9548 446.579 83.9232 446.579 85.2129C446.579 86.0697 446.451 86.7897 446.196 87.373C445.946 87.9518 445.59 88.3916 445.13 88.6924C444.674 88.9886 444.139 89.1367 443.523 89.1367C443.136 89.1367 442.797 89.0866 442.505 88.9863C442.213 88.8815 441.963 88.7448 441.753 88.5762C441.548 88.403 441.375 88.2184 441.233 88.0225H441.145C441.163 88.2002 441.181 88.4076 441.199 88.6445C441.222 88.877 441.233 89.0866 441.233 89.2734V92.3496H439.853V81.4668H440.98L441.165 82.5469H441.233C441.375 82.3236 441.548 82.1208 441.753 81.9385C441.963 81.7516 442.215 81.6035 442.512 81.4941C442.808 81.3848 443.157 81.3301 443.558 81.3301ZM443.243 82.4648C442.76 82.4648 442.373 82.5605 442.081 82.752C441.794 82.9388 441.582 83.2191 441.445 83.5928C441.313 83.9665 441.243 84.4359 441.233 85.001V85.2197C441.233 85.8213 441.297 86.3294 441.425 86.7441C441.552 87.1543 441.764 87.4688 442.061 87.6875C442.357 87.9017 442.756 88.0088 443.257 88.0088C443.685 88.0088 444.041 87.8926 444.323 87.6602C444.61 87.4277 444.822 87.0996 444.959 86.6758C445.1 86.252 445.171 85.7598 445.171 85.1992C445.171 84.347 445.014 83.6794 444.699 83.1963C444.385 82.7087 443.899 82.4648 443.243 82.4648ZM451.118 88.0225C451.314 88.0225 451.512 88.0065 451.713 87.9746C451.913 87.9382 452.087 87.8926 452.232 87.8379V88.8906C452.077 88.959 451.87 89.016 451.61 89.0615C451.355 89.1117 451.093 89.1367 450.824 89.1367C450.414 89.1367 450.043 89.0661 449.71 88.9248C449.377 88.7835 449.111 88.542 448.91 88.2002C448.714 87.8584 448.616 87.3844 448.616 86.7783V82.5264H447.57V81.8906L448.664 81.3848L449.149 79.7578H449.997V81.4668H452.178V82.5264H449.997V86.7578C449.997 87.1816 450.097 87.4984 450.298 87.708C450.503 87.9176 450.776 88.0225 451.118 88.0225ZM458.727 86.8945C458.727 87.3822 458.606 87.7946 458.364 88.1318C458.127 88.4645 457.781 88.7152 457.325 88.8838C456.869 89.0524 456.323 89.1367 455.685 89.1367C455.156 89.1367 454.7 89.0957 454.317 89.0137C453.935 88.9362 453.588 88.8223 453.278 88.6719V87.4551C453.611 87.6146 453.996 87.7559 454.434 87.8789C454.871 88.002 455.299 88.0635 455.719 88.0635C456.307 88.0635 456.73 87.9701 456.99 87.7832C457.255 87.5964 457.387 87.3434 457.387 87.0244C457.387 86.8376 457.334 86.6735 457.229 86.5322C457.125 86.3864 456.94 86.2428 456.676 86.1016C456.416 85.9557 456.042 85.7894 455.555 85.6025C455.076 85.4157 454.666 85.2288 454.324 85.042C453.987 84.8551 453.729 84.6296 453.552 84.3652C453.374 84.1009 453.285 83.7591 453.285 83.3398C453.285 82.6882 453.545 82.1914 454.064 81.8496C454.589 81.5033 455.279 81.3301 456.136 81.3301C456.591 81.3301 457.02 81.3757 457.421 81.4668C457.826 81.5579 458.214 81.6855 458.583 81.8496L458.139 82.9092C457.811 82.7679 457.473 82.6517 457.127 82.5605C456.781 82.4648 456.427 82.417 456.067 82.417C455.598 82.417 455.238 82.4922 454.987 82.6426C454.741 82.793 454.618 83.0003 454.618 83.2646C454.618 83.4697 454.675 83.6406 454.789 83.7773C454.908 83.9141 455.104 84.0485 455.377 84.1807C455.65 84.3083 456.02 84.4609 456.484 84.6387C456.945 84.8118 457.341 84.9919 457.674 85.1787C458.011 85.3656 458.271 85.5934 458.453 85.8623C458.635 86.1312 458.727 86.4753 458.727 86.8945ZM467.709 82.5264H465.856V89H464.482V82.5264H463.204V81.8633L464.482 81.4463V80.9268C464.482 80.2933 464.58 79.7852 464.776 79.4023C464.972 79.015 465.253 78.7324 465.617 78.5547C465.986 78.377 466.433 78.2881 466.957 78.2881C467.271 78.2881 467.559 78.3154 467.818 78.3701C468.083 78.4248 468.311 78.4863 468.502 78.5547L468.146 79.6074C467.992 79.5573 467.818 79.5117 467.627 79.4707C467.436 79.4251 467.233 79.4023 467.019 79.4023C466.622 79.4023 466.328 79.5299 466.137 79.7852C465.95 80.0404 465.856 80.4255 465.856 80.9404V81.4668H467.709V82.5264ZM475.625 85.2197C475.625 85.8395 475.543 86.3932 475.379 86.8809C475.219 87.3639 474.985 87.7741 474.675 88.1113C474.369 88.444 474 88.6992 473.567 88.877C473.134 89.0501 472.645 89.1367 472.098 89.1367C471.587 89.1367 471.118 89.0501 470.689 88.877C470.266 88.6992 469.899 88.444 469.589 88.1113C469.279 87.7741 469.04 87.3639 468.871 86.8809C468.702 86.3932 468.618 85.8395 468.618 85.2197C468.618 84.3949 468.759 83.693 469.042 83.1143C469.325 82.5309 469.728 82.0889 470.252 81.7881C470.781 81.4827 471.41 81.3301 472.139 81.3301C472.831 81.3301 473.44 81.4827 473.964 81.7881C474.488 82.0934 474.896 82.5355 475.188 83.1143C475.479 83.693 475.625 84.3949 475.625 85.2197ZM470.026 85.2197C470.026 85.7985 470.099 86.2975 470.245 86.7168C470.396 87.1315 470.623 87.4505 470.929 87.6738C471.239 87.8971 471.637 88.0088 472.125 88.0088C472.604 88.0088 472.998 87.8971 473.308 87.6738C473.618 87.4505 473.845 87.1315 473.991 86.7168C474.137 86.2975 474.21 85.7985 474.21 85.2197C474.21 84.6455 474.137 84.1533 473.991 83.7432C473.845 83.333 473.618 83.0186 473.308 82.7998C473.002 82.5811 472.604 82.4717 472.111 82.4717C471.391 82.4717 470.863 82.7132 470.525 83.1963C470.193 83.6748 470.026 84.3493 470.026 85.2197ZM481.155 81.3301C481.292 81.3301 481.44 81.3392 481.6 81.3574C481.759 81.3711 481.896 81.3893 482.01 81.4121L481.866 82.6904C481.757 82.6631 481.629 82.6403 481.483 82.6221C481.342 82.6038 481.21 82.5947 481.087 82.5947C480.795 82.5947 480.517 82.6494 480.253 82.7588C479.989 82.8682 479.756 83.0277 479.556 83.2373C479.355 83.4424 479.198 83.6953 479.084 83.9961C478.97 84.2923 478.913 84.6318 478.913 85.0146V89H477.532V81.4668H478.64L478.804 82.8271H478.865C479.02 82.5537 479.207 82.3031 479.426 82.0752C479.649 81.8473 479.904 81.6673 480.191 81.5352C480.483 81.3984 480.804 81.3301 481.155 81.3301ZM410.813 109L409.706 106.026H405.789L404.695 109H403.239L407.054 98.9648H408.489L412.283 109H410.813ZM409.316 104.81L408.264 101.863C408.232 101.763 408.182 101.613 408.113 101.412C408.049 101.212 407.983 101.004 407.915 100.79C407.851 100.576 407.799 100.398 407.758 100.257C407.712 100.444 407.66 100.642 407.601 100.852C407.541 101.057 407.482 101.25 407.423 101.433C407.368 101.61 407.323 101.754 407.286 101.863L406.22 104.81H409.316ZM417.219 101.33C418.089 101.33 418.757 101.549 419.222 101.986C419.691 102.424 419.926 103.126 419.926 104.092V109H418.565V104.276C418.565 103.675 418.433 103.224 418.169 102.923C417.905 102.618 417.499 102.465 416.952 102.465C416.173 102.465 415.626 102.695 415.312 103.155C415.002 103.616 414.847 104.283 414.847 105.158V109H413.473V101.467H414.56L414.758 102.526H414.833C414.993 102.262 415.195 102.041 415.441 101.863C415.688 101.686 415.961 101.553 416.262 101.467C416.567 101.376 416.886 101.33 417.219 101.33ZM425.107 101.337C426.037 101.337 426.732 101.544 427.192 101.959C427.653 102.369 427.883 103.019 427.883 103.907V109H426.898L426.632 107.906H426.577C426.368 108.18 426.149 108.408 425.921 108.59C425.693 108.772 425.429 108.909 425.128 109C424.832 109.091 424.469 109.137 424.041 109.137C423.585 109.137 423.18 109.055 422.824 108.891C422.469 108.727 422.188 108.48 421.983 108.152C421.783 107.82 421.683 107.398 421.683 106.888C421.683 106.122 421.977 105.541 422.564 105.145C423.152 104.748 424.043 104.532 425.237 104.495L426.536 104.44V104.017C426.536 103.429 426.404 103.014 426.14 102.772C425.88 102.531 425.515 102.41 425.046 102.41C424.659 102.41 424.287 102.467 423.932 102.581C423.576 102.69 423.234 102.823 422.906 102.978L422.469 101.979C422.824 101.797 423.228 101.645 423.679 101.521C424.134 101.398 424.611 101.337 425.107 101.337ZM426.522 105.343L425.47 105.391C424.599 105.423 423.986 105.568 423.631 105.828C423.28 106.083 423.104 106.441 423.104 106.901C423.104 107.302 423.225 107.596 423.467 107.783C423.708 107.97 424.027 108.063 424.424 108.063C425.035 108.063 425.536 107.893 425.928 107.551C426.324 107.204 426.522 106.694 426.522 106.02V105.343ZM431.561 109H430.18V98.3633H431.561V109ZM432.743 101.467H434.227L435.826 105.808C435.908 106.031 435.983 106.25 436.052 106.464C436.125 106.674 436.186 106.879 436.236 107.079C436.291 107.275 436.334 107.469 436.366 107.66H436.414C436.469 107.428 436.546 107.145 436.646 106.812C436.747 106.48 436.856 106.143 436.975 105.801L438.506 101.467H439.982L436.729 110.066C436.551 110.545 436.334 110.955 436.079 111.297C435.828 111.643 435.53 111.908 435.184 112.09C434.837 112.277 434.427 112.37 433.953 112.37C433.734 112.37 433.541 112.356 433.372 112.329C433.208 112.306 433.067 112.279 432.948 112.247V111.153C433.049 111.176 433.169 111.197 433.311 111.215C433.456 111.233 433.607 111.242 433.762 111.242C434.049 111.242 434.295 111.185 434.5 111.071C434.71 110.962 434.887 110.805 435.033 110.6C435.184 110.395 435.309 110.155 435.409 109.882L435.751 108.993L432.743 101.467ZM446.128 106.895C446.128 107.382 446.007 107.795 445.766 108.132C445.529 108.465 445.182 108.715 444.727 108.884C444.271 109.052 443.724 109.137 443.086 109.137C442.557 109.137 442.102 109.096 441.719 109.014C441.336 108.936 440.99 108.822 440.68 108.672V107.455C441.012 107.615 441.397 107.756 441.835 107.879C442.272 108.002 442.701 108.063 443.12 108.063C443.708 108.063 444.132 107.97 444.392 107.783C444.656 107.596 444.788 107.343 444.788 107.024C444.788 106.838 444.736 106.674 444.631 106.532C444.526 106.386 444.341 106.243 444.077 106.102C443.817 105.956 443.444 105.789 442.956 105.603C442.478 105.416 442.067 105.229 441.726 105.042C441.388 104.855 441.131 104.63 440.953 104.365C440.775 104.101 440.687 103.759 440.687 103.34C440.687 102.688 440.946 102.191 441.466 101.85C441.99 101.503 442.68 101.33 443.537 101.33C443.993 101.33 444.421 101.376 444.822 101.467C445.228 101.558 445.615 101.686 445.984 101.85L445.54 102.909C445.212 102.768 444.875 102.652 444.528 102.561C444.182 102.465 443.829 102.417 443.469 102.417C442.999 102.417 442.639 102.492 442.389 102.643C442.143 102.793 442.02 103 442.02 103.265C442.02 103.47 442.076 103.641 442.19 103.777C442.309 103.914 442.505 104.049 442.778 104.181C443.052 104.308 443.421 104.461 443.886 104.639C444.346 104.812 444.743 104.992 445.075 105.179C445.412 105.366 445.672 105.593 445.854 105.862C446.037 106.131 446.128 106.475 446.128 106.895ZM450.537 108.022C450.733 108.022 450.931 108.007 451.132 107.975C451.332 107.938 451.506 107.893 451.651 107.838V108.891C451.496 108.959 451.289 109.016 451.029 109.062C450.774 109.112 450.512 109.137 450.243 109.137C449.833 109.137 449.462 109.066 449.129 108.925C448.796 108.784 448.53 108.542 448.329 108.2C448.133 107.858 448.035 107.384 448.035 106.778V102.526H446.989V101.891L448.083 101.385L448.568 99.7578H449.416V101.467H451.597V102.526H449.416V106.758C449.416 107.182 449.516 107.498 449.717 107.708C449.922 107.918 450.195 108.022 450.537 108.022ZM458.146 106.895C458.146 107.382 458.025 107.795 457.783 108.132C457.546 108.465 457.2 108.715 456.744 108.884C456.288 109.052 455.742 109.137 455.104 109.137C454.575 109.137 454.119 109.096 453.736 109.014C453.354 108.936 453.007 108.822 452.697 108.672V107.455C453.03 107.615 453.415 107.756 453.853 107.879C454.29 108.002 454.718 108.063 455.138 108.063C455.726 108.063 456.149 107.97 456.409 107.783C456.674 107.596 456.806 107.343 456.806 107.024C456.806 106.838 456.753 106.674 456.648 106.532C456.544 106.386 456.359 106.243 456.095 106.102C455.835 105.956 455.461 105.789 454.974 105.603C454.495 105.416 454.085 105.229 453.743 105.042C453.406 104.855 453.148 104.63 452.971 104.365C452.793 104.101 452.704 103.759 452.704 103.34C452.704 102.688 452.964 102.191 453.483 101.85C454.007 101.503 454.698 101.33 455.555 101.33C456.01 101.33 456.439 101.376 456.84 101.467C457.245 101.558 457.633 101.686 458.002 101.85L457.558 102.909C457.229 102.768 456.892 102.652 456.546 102.561C456.2 102.465 455.846 102.417 455.486 102.417C455.017 102.417 454.657 102.492 454.406 102.643C454.16 102.793 454.037 103 454.037 103.265C454.037 103.47 454.094 103.641 454.208 103.777C454.326 103.914 454.522 104.049 454.796 104.181C455.069 104.308 455.438 104.461 455.903 104.639C456.364 104.812 456.76 104.992 457.093 105.179C457.43 105.366 457.69 105.593 457.872 105.862C458.054 106.131 458.146 106.475 458.146 106.895Z" fill="#4A4A4A"/>
<circle cx="609" cy="29" r="28" fill="white" stroke="#D9D9D9" stroke-width="2" stroke-dasharray="6 6"/>
<path d="M598.248 34H596.438V29.043C596.438 28.9062 596.439 28.7383 596.443 28.5391C596.447 28.3359 596.453 28.1289 596.461 27.918C596.469 27.7031 596.477 27.5098 596.484 27.3379C596.441 27.3887 596.354 27.4766 596.221 27.6016C596.092 27.7227 595.971 27.832 595.857 27.9297L594.873 28.7207L594 27.6309L596.76 25.4336H598.248V34ZM606.58 29.7168C606.58 30.4082 606.525 31.0254 606.416 31.5684C606.311 32.1113 606.139 32.5723 605.9 32.9512C605.666 33.3301 605.357 33.6191 604.975 33.8184C604.592 34.0176 604.127 34.1172 603.58 34.1172C602.893 34.1172 602.328 33.9434 601.887 33.5957C601.445 33.2441 601.119 32.7402 600.908 32.084C600.697 31.4238 600.592 30.6348 600.592 29.7168C600.592 28.791 600.688 28 600.879 27.3438C601.074 26.6836 601.391 26.1777 601.828 25.8262C602.266 25.4746 602.85 25.2988 603.58 25.2988C604.264 25.2988 604.826 25.4746 605.268 25.8262C605.713 26.1738 606.043 26.6777 606.258 27.3379C606.473 27.9941 606.58 28.7871 606.58 29.7168ZM602.391 29.7168C602.391 30.3691 602.426 30.9141 602.496 31.3516C602.57 31.7852 602.693 32.1113 602.865 32.3301C603.037 32.5488 603.275 32.6582 603.58 32.6582C603.881 32.6582 604.117 32.5508 604.289 32.3359C604.465 32.1172 604.59 31.791 604.664 31.3574C604.738 30.9199 604.775 30.373 604.775 29.7168C604.775 29.0645 604.738 28.5195 604.664 28.082C604.59 27.6445 604.465 27.3164 604.289 27.0977C604.117 26.875 603.881 26.7637 603.58 26.7637C603.275 26.7637 603.037 26.875 602.865 27.0977C602.693 27.3164 602.57 27.6445 602.496 28.082C602.426 28.5195 602.391 29.0645 602.391 29.7168ZM613.447 29.7168C613.447 30.4082 613.393 31.0254 613.283 31.5684C613.178 32.1113 613.006 32.5723 612.768 32.9512C612.533 33.3301 612.225 33.6191 611.842 33.8184C611.459 34.0176 610.994 34.1172 610.447 34.1172C609.76 34.1172 609.195 33.9434 608.754 33.5957C608.312 33.2441 607.986 32.7402 607.775 32.084C607.564 31.4238 607.459 30.6348 607.459 29.7168C607.459 28.791 607.555 28 607.746 27.3438C607.941 26.6836 608.258 26.1777 608.695 25.8262C609.133 25.4746 609.717 25.2988 610.447 25.2988C611.131 25.2988 611.693 25.4746 612.135 25.8262C612.58 26.1738 612.91 26.6777 613.125 27.3379C613.34 27.9941 613.447 28.7871 613.447 29.7168ZM609.258 29.7168C609.258 30.3691 609.293 30.9141 609.363 31.3516C609.438 31.7852 609.561 32.1113 609.732 32.3301C609.904 32.5488 610.143 32.6582 610.447 32.6582C610.748 32.6582 610.984 32.5508 611.156 32.3359C611.332 32.1172 611.457 31.791 611.531 31.3574C611.605 30.9199 611.643 30.373 611.643 29.7168C611.643 29.0645 611.605 28.5195 611.531 28.082C611.457 27.6445 611.332 27.3164 611.156 27.0977C610.984 26.875 610.748 26.7637 610.447 26.7637C610.143 26.7637 609.904 26.875 609.732 27.0977C609.561 27.3164 609.438 27.6445 609.363 28.082C609.293 28.5195 609.258 29.0645 609.258 29.7168ZM616.283 25.3105C616.955 25.3105 617.465 25.5449 617.812 26.0137C618.16 26.4824 618.334 27.1406 618.334 27.9883C618.334 28.8359 618.17 29.498 617.842 29.9746C617.514 30.4512 616.994 30.6895 616.283 30.6895C615.623 30.6895 615.121 30.4512 614.777 29.9746C614.434 29.498 614.262 28.8359 614.262 27.9883C614.262 27.1406 614.422 26.4824 614.742 26.0137C615.066 25.5449 615.58 25.3105 616.283 25.3105ZM616.295 26.5352C616.104 26.5352 615.963 26.6562 615.873 26.8984C615.783 27.1406 615.738 27.5078 615.738 28C615.738 28.4922 615.783 28.8613 615.873 29.1074C615.963 29.3535 616.104 29.4766 616.295 29.4766C616.486 29.4766 616.627 29.3555 616.717 29.1133C616.811 28.8672 616.857 28.4961 616.857 28C616.857 27.5078 616.811 27.1406 616.717 26.8984C616.627 26.6562 616.486 26.5352 616.295 26.5352ZM622.365 25.4336L617.613 34H616.207L620.959 25.4336H622.365ZM622.283 28.7324C622.955 28.7324 623.465 28.9668 623.812 29.4355C624.16 29.9043 624.334 30.5625 624.334 31.4102C624.334 32.2539 624.17 32.9141 623.842 33.3906C623.514 33.8672 622.994 34.1055 622.283 34.1055C621.623 34.1055 621.121 33.8672 620.777 33.3906C620.434 32.9141 620.262 32.2539 620.262 31.4102C620.262 30.5625 620.422 29.9043 620.742 29.4355C621.066 28.9668 621.58 28.7324 622.283 28.7324ZM622.295 29.957C622.104 29.957 621.963 30.0781 621.873 30.3203C621.783 30.5625 621.738 30.9297 621.738 31.4219C621.738 31.9141 621.783 32.2832 621.873 32.5293C621.963 32.7754 622.104 32.8984 622.295 32.8984C622.486 32.8984 622.627 32.7773 622.717 32.5352C622.811 32.2891 622.857 31.918 622.857 31.4219C622.857 30.9297 622.811 30.5625 622.717 30.3203C622.627 30.0781 622.486 29.957 622.295 29.957Z" fill="#D9D9D9"/>
<path d="M548.434 89V79.0059H549.835V89H548.434ZM560.561 83.9072C560.561 85.0329 560.353 85.974 559.938 86.7305C559.524 87.4824 558.922 88.0498 558.134 88.4326C557.35 88.8109 556.397 89 555.276 89H552.535V79.0059H555.584C556.605 79.0059 557.487 79.1927 558.229 79.5664C558.972 79.9355 559.547 80.4847 559.952 81.2139C560.358 81.9385 560.561 82.8363 560.561 83.9072ZM559.091 83.9482C559.091 83.0915 558.952 82.3851 558.674 81.8291C558.396 81.2731 557.988 80.8607 557.45 80.5918C556.912 80.3184 556.254 80.1816 555.475 80.1816H553.937V87.8105H555.229C556.518 87.8105 557.484 87.487 558.127 86.8398C558.77 86.1927 559.091 85.2288 559.091 83.9482ZM568.36 89H562.748V79.0059H568.36V80.209H564.149V83.1826H568.107V84.3721H564.149V87.79H568.36V89ZM576.775 89L575.668 86.0264H571.751L570.657 89H569.201L573.016 78.9648H574.451L578.245 89H576.775ZM575.278 84.8096L574.226 81.8633C574.194 81.763 574.144 81.6126 574.075 81.4121C574.011 81.2116 573.945 81.0042 573.877 80.79C573.813 80.5758 573.761 80.3981 573.72 80.2568C573.674 80.4437 573.622 80.6419 573.562 80.8516C573.503 81.0566 573.444 81.2503 573.385 81.4326C573.33 81.6104 573.285 81.7539 573.248 81.8633L572.182 84.8096H575.278ZM591.268 83.9072C591.268 85.0329 591.06 85.974 590.646 86.7305C590.231 87.4824 589.629 88.0498 588.841 88.4326C588.057 88.8109 587.104 89 585.983 89H583.242V79.0059H586.291C587.312 79.0059 588.194 79.1927 588.937 79.5664C589.679 79.9355 590.254 80.4847 590.659 81.2139C591.065 81.9385 591.268 82.8363 591.268 83.9072ZM589.798 83.9482C589.798 83.0915 589.659 82.3851 589.381 81.8291C589.103 81.2731 588.695 80.8607 588.157 80.5918C587.619 80.3184 586.961 80.1816 586.182 80.1816H584.644V87.8105H585.936C587.225 87.8105 588.191 87.487 588.834 86.8398C589.477 86.1927 589.798 85.2288 589.798 83.9482ZM596.169 81.3369C597.099 81.3369 597.794 81.5443 598.254 81.959C598.714 82.3691 598.944 83.0186 598.944 83.9072V89H597.96L597.693 87.9062H597.639C597.429 88.1797 597.21 88.4076 596.982 88.5898C596.755 88.7721 596.49 88.9089 596.189 89C595.893 89.0911 595.531 89.1367 595.103 89.1367C594.647 89.1367 594.241 89.0547 593.886 88.8906C593.53 88.7266 593.25 88.4805 593.045 88.1523C592.844 87.8197 592.744 87.3981 592.744 86.8877C592.744 86.1221 593.038 85.541 593.626 85.1445C594.214 84.748 595.105 84.5316 596.299 84.4951L597.598 84.4404V84.0166C597.598 83.4287 597.465 83.014 597.201 82.7725C596.941 82.5309 596.577 82.4102 596.107 82.4102C595.72 82.4102 595.349 82.4671 594.993 82.5811C594.638 82.6904 594.296 82.8226 593.968 82.9775L593.53 81.9795C593.886 81.7972 594.289 81.6445 594.74 81.5215C595.196 81.3984 595.672 81.3369 596.169 81.3369ZM597.584 85.3428L596.531 85.3906C595.661 85.4225 595.048 85.5684 594.692 85.8281C594.341 86.0833 594.166 86.4411 594.166 86.9014C594.166 87.3024 594.287 87.5964 594.528 87.7832C594.77 87.9701 595.089 88.0635 595.485 88.0635C596.096 88.0635 596.597 87.8926 596.989 87.5508C597.386 87.2044 597.584 86.694 597.584 86.0195V85.3428ZM603.866 88.0225C604.062 88.0225 604.26 88.0065 604.461 87.9746C604.661 87.9382 604.835 87.8926 604.98 87.8379V88.8906C604.826 88.959 604.618 89.016 604.358 89.0615C604.103 89.1117 603.841 89.1367 603.572 89.1367C603.162 89.1367 602.791 89.0661 602.458 88.9248C602.125 88.7835 601.859 88.542 601.658 88.2002C601.462 87.8584 601.364 87.3844 601.364 86.7783V82.5264H600.318V81.8906L601.412 81.3848L601.897 79.7578H602.745V81.4668H604.926V82.5264H602.745V86.7578C602.745 87.1816 602.845 87.4984 603.046 87.708C603.251 87.9176 603.524 88.0225 603.866 88.0225ZM609.39 81.3369C610.319 81.3369 611.014 81.5443 611.475 81.959C611.935 82.3691 612.165 83.0186 612.165 83.9072V89H611.181L610.914 87.9062H610.859C610.65 88.1797 610.431 88.4076 610.203 88.5898C609.975 88.7721 609.711 88.9089 609.41 89C609.114 89.0911 608.752 89.1367 608.323 89.1367C607.868 89.1367 607.462 89.0547 607.106 88.8906C606.751 88.7266 606.471 88.4805 606.266 88.1523C606.065 87.8197 605.965 87.3981 605.965 86.8877C605.965 86.1221 606.259 85.541 606.847 85.1445C607.435 84.748 608.326 84.5316 609.52 84.4951L610.818 84.4404V84.0166C610.818 83.4287 610.686 83.014 610.422 82.7725C610.162 82.5309 609.798 82.4102 609.328 82.4102C608.941 82.4102 608.569 82.4671 608.214 82.5811C607.858 82.6904 607.517 82.8226 607.188 82.9775L606.751 81.9795C607.106 81.7972 607.51 81.6445 607.961 81.5215C608.417 81.3984 608.893 81.3369 609.39 81.3369ZM610.805 85.3428L609.752 85.3906C608.882 85.4225 608.269 85.5684 607.913 85.8281C607.562 86.0833 607.387 86.4411 607.387 86.9014C607.387 87.3024 607.507 87.5964 607.749 87.7832C607.991 87.9701 608.31 88.0635 608.706 88.0635C609.317 88.0635 609.818 87.8926 610.21 87.5508C610.606 87.2044 610.805 86.694 610.805 86.0195V85.3428ZM624.504 89L623.396 86.0264H619.479L618.386 89H616.93L620.744 78.9648H622.18L625.974 89H624.504ZM623.007 84.8096L621.954 81.8633C621.922 81.763 621.872 81.6126 621.804 81.4121C621.74 81.2116 621.674 81.0042 621.605 80.79C621.542 80.5758 621.489 80.3981 621.448 80.2568C621.403 80.4437 621.35 80.6419 621.291 80.8516C621.232 81.0566 621.173 81.2503 621.113 81.4326C621.059 81.6104 621.013 81.7539 620.977 81.8633L619.91 84.8096H623.007ZM630.909 81.3301C631.78 81.3301 632.447 81.5488 632.912 81.9863C633.382 82.4238 633.616 83.1257 633.616 84.0918V89H632.256V84.2764C632.256 83.6748 632.124 83.2236 631.859 82.9229C631.595 82.6175 631.189 82.4648 630.643 82.4648C629.863 82.4648 629.316 82.695 629.002 83.1553C628.692 83.6156 628.537 84.2832 628.537 85.1582V89H627.163V81.4668H628.25L628.448 82.5264H628.523C628.683 82.262 628.886 82.041 629.132 81.8633C629.378 81.6855 629.651 81.5534 629.952 81.4668C630.257 81.3757 630.576 81.3301 630.909 81.3301ZM638.798 81.3369C639.728 81.3369 640.423 81.5443 640.883 81.959C641.343 82.3691 641.573 83.0186 641.573 83.9072V89H640.589L640.322 87.9062H640.268C640.058 88.1797 639.839 88.4076 639.611 88.5898C639.383 88.7721 639.119 88.9089 638.818 89C638.522 89.0911 638.16 89.1367 637.731 89.1367C637.276 89.1367 636.87 89.0547 636.515 88.8906C636.159 88.7266 635.879 88.4805 635.674 88.1523C635.473 87.8197 635.373 87.3981 635.373 86.8877C635.373 86.1221 635.667 85.541 636.255 85.1445C636.843 84.748 637.734 84.5316 638.928 84.4951L640.227 84.4404V84.0166C640.227 83.4287 640.094 83.014 639.83 82.7725C639.57 82.5309 639.206 82.4102 638.736 82.4102C638.349 82.4102 637.978 82.4671 637.622 82.5811C637.267 82.6904 636.925 82.8226 636.597 82.9775L636.159 81.9795C636.515 81.7972 636.918 81.6445 637.369 81.5215C637.825 81.3984 638.301 81.3369 638.798 81.3369ZM640.213 85.3428L639.16 85.3906C638.29 85.4225 637.677 85.5684 637.321 85.8281C636.97 86.0833 636.795 86.4411 636.795 86.9014C636.795 87.3024 636.916 87.5964 637.157 87.7832C637.399 87.9701 637.718 88.0635 638.114 88.0635C638.725 88.0635 639.226 87.8926 639.618 87.5508C640.015 87.2044 640.213 86.694 640.213 86.0195V85.3428ZM645.251 89H643.87V78.3633H645.251V89ZM646.434 81.4668H647.917L649.517 85.8076C649.599 86.0309 649.674 86.2497 649.742 86.4639C649.815 86.6735 649.877 86.8786 649.927 87.0791C649.981 87.2751 650.025 87.4688 650.057 87.6602H650.104C650.159 87.4277 650.237 87.1452 650.337 86.8125C650.437 86.4798 650.547 86.1426 650.665 85.8008L652.196 81.4668H653.673L650.419 90.0664C650.241 90.5449 650.025 90.9551 649.77 91.2969C649.519 91.6432 649.22 91.9076 648.874 92.0898C648.528 92.2767 648.118 92.3701 647.644 92.3701C647.425 92.3701 647.231 92.3564 647.062 92.3291C646.898 92.3063 646.757 92.279 646.639 92.2471V91.1533C646.739 91.1761 646.86 91.1966 647.001 91.2148C647.147 91.2331 647.297 91.2422 647.452 91.2422C647.739 91.2422 647.985 91.1852 648.19 91.0713C648.4 90.9619 648.578 90.8047 648.724 90.5996C648.874 90.3945 648.999 90.1553 649.1 89.8818L649.441 88.9932L646.434 81.4668ZM659.818 86.8945C659.818 87.3822 659.698 87.7946 659.456 88.1318C659.219 88.4645 658.873 88.7152 658.417 88.8838C657.961 89.0524 657.414 89.1367 656.776 89.1367C656.248 89.1367 655.792 89.0957 655.409 89.0137C655.026 88.9362 654.68 88.8223 654.37 88.6719V87.4551C654.703 87.6146 655.088 87.7559 655.525 87.8789C655.963 88.002 656.391 88.0635 656.811 88.0635C657.398 88.0635 657.822 87.9701 658.082 87.7832C658.346 87.5964 658.479 87.3434 658.479 87.0244C658.479 86.8376 658.426 86.6735 658.321 86.5322C658.216 86.3864 658.032 86.2428 657.768 86.1016C657.508 85.9557 657.134 85.7894 656.646 85.6025C656.168 85.4157 655.758 85.2288 655.416 85.042C655.079 84.8551 654.821 84.6296 654.644 84.3652C654.466 84.1009 654.377 83.7591 654.377 83.3398C654.377 82.6882 654.637 82.1914 655.156 81.8496C655.68 81.5033 656.371 81.3301 657.228 81.3301C657.683 81.3301 658.112 81.3757 658.513 81.4668C658.918 81.5579 659.306 81.6855 659.675 81.8496L659.23 82.9092C658.902 82.7679 658.565 82.6517 658.219 82.5605C657.872 82.4648 657.519 82.417 657.159 82.417C656.69 82.417 656.33 82.4922 656.079 82.6426C655.833 82.793 655.71 83.0003 655.71 83.2646C655.71 83.4697 655.767 83.6406 655.881 83.7773C655.999 83.9141 656.195 84.0485 656.469 84.1807C656.742 84.3083 657.111 84.4609 657.576 84.6387C658.036 84.8118 658.433 84.9919 658.766 85.1787C659.103 85.3656 659.363 85.5934 659.545 85.8623C659.727 86.1312 659.818 86.4753 659.818 86.8945ZM662.977 81.4668V89H661.603V81.4668H662.977ZM662.3 78.6162C662.519 78.6162 662.705 78.68 662.86 78.8076C663.02 78.9352 663.1 79.1426 663.1 79.4297C663.1 79.7168 663.02 79.9264 662.86 80.0586C662.705 80.1862 662.519 80.25 662.3 80.25C662.076 80.25 661.887 80.1862 661.732 80.0586C661.582 79.9264 661.507 79.7168 661.507 79.4297C661.507 79.1426 661.582 78.9352 661.732 78.8076C661.887 78.68 662.076 78.6162 662.3 78.6162ZM670.291 86.8945C670.291 87.3822 670.17 87.7946 669.929 88.1318C669.692 88.4645 669.345 88.7152 668.89 88.8838C668.434 89.0524 667.887 89.1367 667.249 89.1367C666.72 89.1367 666.265 89.0957 665.882 89.0137C665.499 88.9362 665.153 88.8223 664.843 88.6719V87.4551C665.175 87.6146 665.561 87.7559 665.998 87.8789C666.436 88.002 666.864 88.0635 667.283 88.0635C667.871 88.0635 668.295 87.9701 668.555 87.7832C668.819 87.5964 668.951 87.3434 668.951 87.0244C668.951 86.8376 668.899 86.6735 668.794 86.5322C668.689 86.3864 668.505 86.2428 668.24 86.1016C667.98 85.9557 667.607 85.7894 667.119 85.6025C666.641 85.4157 666.23 85.2288 665.889 85.042C665.551 84.8551 665.294 84.6296 665.116 84.3652C664.938 84.1009 664.85 83.7591 664.85 83.3398C664.85 82.6882 665.109 82.1914 665.629 81.8496C666.153 81.5033 666.843 81.3301 667.7 81.3301C668.156 81.3301 668.584 81.3757 668.985 81.4668C669.391 81.5579 669.778 81.6855 670.147 81.8496L669.703 82.9092C669.375 82.7679 669.038 82.6517 668.691 82.5605C668.345 82.4648 667.992 82.417 667.632 82.417C667.162 82.417 666.802 82.4922 666.552 82.6426C666.306 82.793 666.183 83.0003 666.183 83.2646C666.183 83.4697 666.24 83.6406 666.354 83.7773C666.472 83.9141 666.668 84.0485 666.941 84.1807C667.215 84.3083 667.584 84.4609 668.049 84.6387C668.509 84.8118 668.906 84.9919 669.238 85.1787C669.576 85.3656 669.835 85.5934 670.018 85.8623C670.2 86.1312 670.291 86.4753 670.291 86.8945ZM578.457 100.072C577.942 100.072 577.479 100.163 577.069 100.346C576.664 100.523 576.32 100.785 576.037 101.132C575.755 101.474 575.538 101.886 575.388 102.369C575.237 102.852 575.162 103.397 575.162 104.003C575.162 104.81 575.281 105.507 575.518 106.095C575.759 106.683 576.121 107.136 576.604 107.455C577.088 107.774 577.696 107.934 578.43 107.934C578.867 107.934 579.284 107.895 579.681 107.817C580.082 107.735 580.48 107.631 580.877 107.503V108.706C580.494 108.852 580.098 108.959 579.688 109.027C579.282 109.1 578.806 109.137 578.259 109.137C577.238 109.137 576.388 108.925 575.709 108.501C575.035 108.077 574.531 107.482 574.198 106.717C573.866 105.947 573.699 105.04 573.699 103.996C573.699 103.24 573.804 102.549 574.014 101.925C574.223 101.296 574.531 100.754 574.937 100.298C575.342 99.8376 575.839 99.4844 576.427 99.2383C577.019 98.9876 577.701 98.8623 578.471 98.8623C578.972 98.8623 579.46 98.917 579.934 99.0264C580.412 99.1312 580.852 99.2793 581.253 99.4707L580.733 100.64C580.401 100.489 580.043 100.357 579.66 100.243C579.282 100.129 578.881 100.072 578.457 100.072ZM583.037 109V99.0059H584.438V109H583.037ZM595.164 103.907C595.164 105.033 594.957 105.974 594.542 106.73C594.127 107.482 593.526 108.05 592.737 108.433C591.953 108.811 591.001 109 589.88 109H587.139V99.0059H590.188C591.208 99.0059 592.09 99.1927 592.833 99.5664C593.576 99.9355 594.15 100.485 594.556 101.214C594.961 101.938 595.164 102.836 595.164 103.907ZM593.694 103.948C593.694 103.091 593.555 102.385 593.277 101.829C592.999 101.273 592.591 100.861 592.054 100.592C591.516 100.318 590.857 100.182 590.078 100.182H588.54V107.811H589.832C591.122 107.811 592.088 107.487 592.73 106.84C593.373 106.193 593.694 105.229 593.694 103.948ZM603.586 109L602.479 106.026H598.562L597.468 109H596.012L599.826 98.9648H601.262L605.056 109H603.586ZM602.089 104.81L601.036 101.863C601.004 101.763 600.954 101.613 600.886 101.412C600.822 101.212 600.756 101.004 600.688 100.79C600.624 100.576 600.571 100.398 600.53 100.257C600.485 100.444 600.432 100.642 600.373 100.852C600.314 101.057 600.255 101.25 600.195 101.433C600.141 101.61 600.095 101.754 600.059 101.863L598.992 104.81H602.089ZM615.665 109H610.053V99.0059H615.665V100.209H611.454V103.183H615.412V104.372H611.454V107.79H615.665V109ZM619.404 105.145L616.848 101.467H618.413L620.266 104.242L622.118 101.467H623.67L621.106 105.145L623.807 109H622.241L620.266 106.054L618.276 109H616.725L619.404 105.145ZM628.079 101.337C629.009 101.337 629.704 101.544 630.164 101.959C630.624 102.369 630.854 103.019 630.854 103.907V109H629.87L629.604 107.906H629.549C629.339 108.18 629.12 108.408 628.893 108.59C628.665 108.772 628.4 108.909 628.1 109C627.803 109.091 627.441 109.137 627.013 109.137C626.557 109.137 626.151 109.055 625.796 108.891C625.44 108.727 625.16 108.48 624.955 108.152C624.755 107.82 624.654 107.398 624.654 106.888C624.654 106.122 624.948 105.541 625.536 105.145C626.124 104.748 627.015 104.532 628.209 104.495L629.508 104.44V104.017C629.508 103.429 629.376 103.014 629.111 102.772C628.852 102.531 628.487 102.41 628.018 102.41C627.63 102.41 627.259 102.467 626.903 102.581C626.548 102.69 626.206 102.823 625.878 102.978L625.44 101.979C625.796 101.797 626.199 101.645 626.65 101.521C627.106 101.398 627.582 101.337 628.079 101.337ZM629.494 105.343L628.441 105.391C627.571 105.423 626.958 105.568 626.603 105.828C626.252 106.083 626.076 106.441 626.076 106.901C626.076 107.302 626.197 107.596 626.438 107.783C626.68 107.97 626.999 108.063 627.396 108.063C628.006 108.063 628.507 107.893 628.899 107.551C629.296 107.204 629.494 106.694 629.494 106.02V105.343ZM641.498 101.33C642.332 101.33 642.961 101.549 643.385 101.986C643.813 102.419 644.027 103.114 644.027 104.071V109H642.667V104.242C642.667 103.65 642.544 103.205 642.298 102.909C642.056 102.613 641.694 102.465 641.211 102.465C640.527 102.465 640.033 102.672 639.728 103.087C639.427 103.497 639.276 104.101 639.276 104.898V109H637.909V104.242C637.909 103.846 637.854 103.518 637.745 103.258C637.636 102.993 637.474 102.795 637.26 102.663C637.046 102.531 636.774 102.465 636.446 102.465C635.977 102.465 635.601 102.567 635.318 102.772C635.04 102.973 634.838 103.271 634.71 103.668C634.587 104.064 634.525 104.55 634.525 105.124V109H633.151V101.467H634.238L634.437 102.506H634.512C634.662 102.246 634.851 102.03 635.079 101.856C635.312 101.683 635.569 101.553 635.852 101.467C636.134 101.376 636.433 101.33 636.747 101.33C637.312 101.33 637.788 101.433 638.176 101.638C638.563 101.843 638.848 102.155 639.03 102.574H639.119C639.361 102.15 639.693 101.838 640.117 101.638C640.546 101.433 641.006 101.33 641.498 101.33ZM573.583 119.006C574.873 119.006 575.814 119.263 576.406 119.778C577.003 120.293 577.302 121.025 577.302 121.973C577.302 122.401 577.233 122.809 577.097 123.196C576.96 123.579 576.737 123.919 576.427 124.215C576.121 124.507 575.718 124.739 575.217 124.912C574.715 125.081 574.1 125.165 573.371 125.165H572.229V129H570.828V119.006H573.583ZM573.474 120.182H572.229V123.982H573.221C573.799 123.982 574.285 123.919 574.677 123.791C575.069 123.659 575.365 123.449 575.565 123.162C575.766 122.875 575.866 122.497 575.866 122.027C575.866 121.408 575.673 120.945 575.285 120.64C574.898 120.334 574.294 120.182 573.474 120.182ZM582.798 121.33C582.935 121.33 583.083 121.339 583.242 121.357C583.402 121.371 583.538 121.389 583.652 121.412L583.509 122.69C583.399 122.663 583.272 122.64 583.126 122.622C582.985 122.604 582.853 122.595 582.729 122.595C582.438 122.595 582.16 122.649 581.896 122.759C581.631 122.868 581.399 123.028 581.198 123.237C580.998 123.442 580.84 123.695 580.727 123.996C580.613 124.292 580.556 124.632 580.556 125.015V129H579.175V121.467H580.282L580.446 122.827H580.508C580.663 122.554 580.85 122.303 581.068 122.075C581.292 121.847 581.547 121.667 581.834 121.535C582.126 121.398 582.447 121.33 582.798 121.33ZM588.007 121.33C588.663 121.33 589.226 121.471 589.695 121.754C590.165 122.032 590.525 122.426 590.775 122.937C591.026 123.447 591.151 124.049 591.151 124.741V125.521H586.038C586.052 126.327 586.259 126.947 586.66 127.38C587.061 127.808 587.624 128.022 588.349 128.022C588.827 128.022 589.253 127.977 589.627 127.886C590.001 127.795 590.388 127.66 590.789 127.482V128.638C590.411 128.811 590.03 128.936 589.647 129.014C589.269 129.096 588.816 129.137 588.287 129.137C587.558 129.137 586.918 128.991 586.366 128.699C585.819 128.408 585.393 127.977 585.088 127.407C584.783 126.833 584.63 126.127 584.63 125.288C584.63 124.459 584.769 123.75 585.047 123.162C585.325 122.57 585.717 122.116 586.223 121.802C586.729 121.487 587.323 121.33 588.007 121.33ZM588 122.396C587.444 122.396 586.997 122.579 586.66 122.943C586.323 123.303 586.125 123.821 586.065 124.495H589.771C589.766 124.08 589.7 123.716 589.572 123.401C589.445 123.087 589.251 122.841 588.991 122.663C588.736 122.485 588.406 122.396 588 122.396ZM596.729 121.33C597.646 121.33 598.377 121.656 598.924 122.308C599.475 122.955 599.751 123.923 599.751 125.213C599.751 126.07 599.623 126.79 599.368 127.373C599.118 127.952 598.762 128.392 598.302 128.692C597.846 128.989 597.311 129.137 596.695 129.137C596.308 129.137 595.968 129.087 595.677 128.986C595.385 128.882 595.134 128.745 594.925 128.576C594.72 128.403 594.547 128.218 594.405 128.022H594.316C594.335 128.2 594.353 128.408 594.371 128.645C594.394 128.877 594.405 129.087 594.405 129.273V132.35H593.024V121.467H594.152L594.337 122.547H594.405C594.547 122.324 594.72 122.121 594.925 121.938C595.134 121.752 595.387 121.604 595.684 121.494C595.98 121.385 596.328 121.33 596.729 121.33ZM596.415 122.465C595.932 122.465 595.545 122.561 595.253 122.752C594.966 122.939 594.754 123.219 594.617 123.593C594.485 123.966 594.414 124.436 594.405 125.001V125.22C594.405 125.821 594.469 126.329 594.597 126.744C594.724 127.154 594.936 127.469 595.232 127.688C595.529 127.902 595.927 128.009 596.429 128.009C596.857 128.009 597.213 127.893 597.495 127.66C597.782 127.428 597.994 127.1 598.131 126.676C598.272 126.252 598.343 125.76 598.343 125.199C598.343 124.347 598.186 123.679 597.871 123.196C597.557 122.709 597.071 122.465 596.415 122.465ZM604.55 121.337C605.479 121.337 606.174 121.544 606.635 121.959C607.095 122.369 607.325 123.019 607.325 123.907V129H606.341L606.074 127.906H606.02C605.81 128.18 605.591 128.408 605.363 128.59C605.135 128.772 604.871 128.909 604.57 129C604.274 129.091 603.912 129.137 603.483 129.137C603.028 129.137 602.622 129.055 602.267 128.891C601.911 128.727 601.631 128.48 601.426 128.152C601.225 127.82 601.125 127.398 601.125 126.888C601.125 126.122 601.419 125.541 602.007 125.145C602.595 124.748 603.486 124.532 604.68 124.495L605.979 124.44V124.017C605.979 123.429 605.846 123.014 605.582 122.772C605.322 122.531 604.958 122.41 604.488 122.41C604.101 122.41 603.729 122.467 603.374 122.581C603.019 122.69 602.677 122.823 602.349 122.978L601.911 121.979C602.267 121.797 602.67 121.645 603.121 121.521C603.577 121.398 604.053 121.337 604.55 121.337ZM605.965 125.343L604.912 125.391C604.042 125.423 603.429 125.568 603.073 125.828C602.722 126.083 602.547 126.441 602.547 126.901C602.547 127.302 602.668 127.596 602.909 127.783C603.151 127.97 603.47 128.063 603.866 128.063C604.477 128.063 604.978 127.893 605.37 127.551C605.767 127.204 605.965 126.694 605.965 126.02V125.343ZM613.245 121.33C613.382 121.33 613.53 121.339 613.689 121.357C613.849 121.371 613.986 121.389 614.1 121.412L613.956 122.69C613.847 122.663 613.719 122.64 613.573 122.622C613.432 122.604 613.3 122.595 613.177 122.595C612.885 122.595 612.607 122.649 612.343 122.759C612.078 122.868 611.846 123.028 611.646 123.237C611.445 123.442 611.288 123.695 611.174 123.996C611.06 124.292 611.003 124.632 611.003 125.015V129H609.622V121.467H610.729L610.894 122.827H610.955C611.11 122.554 611.297 122.303 611.516 122.075C611.739 121.847 611.994 121.667 612.281 121.535C612.573 121.398 612.894 121.33 613.245 121.33ZM618.386 121.337C619.315 121.337 620.01 121.544 620.471 121.959C620.931 122.369 621.161 123.019 621.161 123.907V129H620.177L619.91 127.906H619.855C619.646 128.18 619.427 128.408 619.199 128.59C618.971 128.772 618.707 128.909 618.406 129C618.11 129.091 617.748 129.137 617.319 129.137C616.864 129.137 616.458 129.055 616.103 128.891C615.747 128.727 615.467 128.48 615.262 128.152C615.061 127.82 614.961 127.398 614.961 126.888C614.961 126.122 615.255 125.541 615.843 125.145C616.431 124.748 617.322 124.532 618.516 124.495L619.814 124.44V124.017C619.814 123.429 619.682 123.014 619.418 122.772C619.158 122.531 618.794 122.41 618.324 122.41C617.937 122.41 617.565 122.467 617.21 122.581C616.854 122.69 616.513 122.823 616.185 122.978L615.747 121.979C616.103 121.797 616.506 121.645 616.957 121.521C617.413 121.398 617.889 121.337 618.386 121.337ZM619.801 125.343L618.748 125.391C617.878 125.423 617.265 125.568 616.909 125.828C616.558 126.083 616.383 126.441 616.383 126.901C616.383 127.302 616.504 127.596 616.745 127.783C616.987 127.97 617.306 128.063 617.702 128.063C618.313 128.063 618.814 127.893 619.206 127.551C619.603 127.204 619.801 126.694 619.801 126.02V125.343ZM626.083 128.022C626.279 128.022 626.477 128.007 626.678 127.975C626.878 127.938 627.051 127.893 627.197 127.838V128.891C627.042 128.959 626.835 129.016 626.575 129.062C626.32 129.112 626.058 129.137 625.789 129.137C625.379 129.137 625.007 129.066 624.675 128.925C624.342 128.784 624.076 128.542 623.875 128.2C623.679 127.858 623.581 127.384 623.581 126.778V122.526H622.535V121.891L623.629 121.385L624.114 119.758H624.962V121.467H627.143V122.526H624.962V126.758C624.962 127.182 625.062 127.498 625.263 127.708C625.468 127.918 625.741 128.022 626.083 128.022ZM630.096 121.467V129H628.722V121.467H630.096ZM629.419 118.616C629.638 118.616 629.825 118.68 629.979 118.808C630.139 118.935 630.219 119.143 630.219 119.43C630.219 119.717 630.139 119.926 629.979 120.059C629.825 120.186 629.638 120.25 629.419 120.25C629.196 120.25 629.007 120.186 628.852 120.059C628.701 119.926 628.626 119.717 628.626 119.43C628.626 119.143 628.701 118.935 628.852 118.808C629.007 118.68 629.196 118.616 629.419 118.616ZM639.023 125.22C639.023 125.84 638.941 126.393 638.777 126.881C638.618 127.364 638.383 127.774 638.073 128.111C637.768 128.444 637.399 128.699 636.966 128.877C636.533 129.05 636.043 129.137 635.496 129.137C634.986 129.137 634.516 129.05 634.088 128.877C633.664 128.699 633.297 128.444 632.987 128.111C632.677 127.774 632.438 127.364 632.27 126.881C632.101 126.393 632.017 125.84 632.017 125.22C632.017 124.395 632.158 123.693 632.44 123.114C632.723 122.531 633.126 122.089 633.65 121.788C634.179 121.483 634.808 121.33 635.537 121.33C636.23 121.33 636.838 121.483 637.362 121.788C637.886 122.093 638.294 122.535 638.586 123.114C638.878 123.693 639.023 124.395 639.023 125.22ZM633.425 125.22C633.425 125.799 633.498 126.298 633.644 126.717C633.794 127.132 634.022 127.451 634.327 127.674C634.637 127.897 635.036 128.009 635.523 128.009C636.002 128.009 636.396 127.897 636.706 127.674C637.016 127.451 637.244 127.132 637.39 126.717C637.535 126.298 637.608 125.799 637.608 125.22C637.608 124.646 637.535 124.153 637.39 123.743C637.244 123.333 637.016 123.019 636.706 122.8C636.401 122.581 636.002 122.472 635.51 122.472C634.79 122.472 634.261 122.713 633.924 123.196C633.591 123.675 633.425 124.349 633.425 125.22ZM644.677 121.33C645.547 121.33 646.215 121.549 646.68 121.986C647.149 122.424 647.384 123.126 647.384 124.092V129H646.023V124.276C646.023 123.675 645.891 123.224 645.627 122.923C645.363 122.618 644.957 122.465 644.41 122.465C643.631 122.465 643.084 122.695 642.77 123.155C642.46 123.616 642.305 124.283 642.305 125.158V129H640.931V121.467H642.018L642.216 122.526H642.291C642.451 122.262 642.653 122.041 642.899 121.863C643.146 121.686 643.419 121.553 643.72 121.467C644.025 121.376 644.344 121.33 644.677 121.33Z" fill="#4A4A4A"/>
<defs>
<linearGradient id="paint0_linear_630_7735" x1="92.8065" y1="7.32258" x2="56.0323" y2="45.2581" gradientUnits="userSpaceOnUse">
<stop stop-color="#E72828"/>
<stop offset="1" stop-color="#A5262A"/>
</linearGradient>
<linearGradient id="paint1_linear_630_7735" x1="270.806" y1="7.32258" x2="234.032" y2="45.2581" gradientUnits="userSpaceOnUse">
<stop stop-color="#E72828"/>
<stop offset="1" stop-color="#A5262A"/>
</linearGradient>
<linearGradient id="paint2_linear_630_7735" x1="448.806" y1="7.32258" x2="412.032" y2="45.2581" gradientUnits="userSpaceOnUse">
<stop stop-color="#E72828"/>
<stop offset="1" stop-color="#A5262A"/>
</linearGradient>
</defs>
</svg>
